<svg width="157" height="45" viewBox="0 0 157 45" fill="none" xmlns="http://www.w3.org/2000/svg">
<g clip-path="url(#clip0_4747_538)">
<path d="M61.8496 17.4818C61.7195 17.4818 61.6207 17.4454 61.5478 17.3751C61.4776 17.3049 61.4412 17.2034 61.4412 17.076V12.5885C61.4412 12.4584 61.4776 12.3595 61.5478 12.2867C61.6181 12.2139 61.7195 12.18 61.8496 12.18C61.9797 12.18 62.0785 12.2165 62.1462 12.2867C62.2138 12.3569 62.2476 12.4584 62.2476 12.5885V17.076C62.2476 17.206 62.2138 17.3049 62.1462 17.3751C62.0785 17.4454 61.9797 17.4818 61.8496 17.4818ZM61.8002 14.1962C61.8132 13.8007 61.9146 13.4469 62.1045 13.1348C62.2944 12.8226 62.5468 12.5755 62.8616 12.3934C63.1763 12.2139 63.5197 12.1228 63.8943 12.1228C64.2247 12.1228 64.4745 12.1722 64.6462 12.2685C64.8179 12.3647 64.8803 12.4974 64.8361 12.6665C64.8179 12.7576 64.7762 12.8226 64.7138 12.8616C64.6514 12.9006 64.5811 12.9188 64.5005 12.9188C64.4198 12.9188 64.3262 12.9136 64.2247 12.9006C63.8423 12.8564 63.5067 12.8798 63.2128 12.9735C62.9188 13.0671 62.6847 13.2206 62.5104 13.4339C62.3361 13.6473 62.2476 13.9022 62.2476 14.1988H61.8028L61.8002 14.1962Z" fill="#6F2205"/>
<path d="M68.2675 17.5312C67.7758 17.5312 67.3362 17.4142 66.9486 17.1774C66.5609 16.9407 66.254 16.6207 66.0276 16.2123C65.8013 15.8039 65.6895 15.346 65.6895 14.8361C65.6895 14.3262 65.8065 13.858 66.0433 13.4496C66.28 13.0437 66.6 12.7211 67.0084 12.4844C67.4142 12.2477 67.8721 12.1306 68.3742 12.1306C68.8762 12.1306 69.3419 12.2477 69.7451 12.4844C70.1484 12.7211 70.4683 13.0411 70.7051 13.4496C70.9418 13.858 71.0615 14.3184 71.0693 14.8361L70.7389 15C70.7389 15.4787 70.6296 15.9079 70.4137 16.2903C70.1978 16.6728 69.9038 16.9745 69.5318 17.1957C69.1598 17.4168 68.7384 17.5312 68.2675 17.5312ZM68.382 16.7924C68.7436 16.7924 69.0661 16.7066 69.3471 16.5349C69.6281 16.3632 69.8518 16.1291 70.0157 15.8325C70.1796 15.5359 70.2628 15.2029 70.2628 14.8335C70.2628 14.4641 70.1796 14.1233 70.0157 13.8294C69.8518 13.5354 69.6281 13.3013 69.3471 13.127C69.0661 12.9527 68.7436 12.8642 68.382 12.8642C68.0204 12.8642 67.7056 12.9527 67.4168 13.127C67.1281 13.3013 66.9017 13.5354 66.7326 13.8294C66.5635 14.1233 66.4803 14.4589 66.4803 14.8335C66.4803 15.2081 66.5635 15.5359 66.7326 15.8325C66.9017 16.1291 67.1281 16.3632 67.4168 16.5349C67.703 16.7066 68.0256 16.7924 68.382 16.7924ZM70.6608 17.4818C70.5386 17.4818 70.4371 17.4454 70.3565 17.3699C70.2758 17.2945 70.2342 17.1983 70.2342 17.0734V15.4735L70.4189 14.6306L71.0693 14.8335V17.0734C71.0693 17.1957 71.0302 17.2945 70.9522 17.3699C70.8742 17.4454 70.7779 17.4818 70.6608 17.4818Z" fill="#6F2205"/>
<path d="M74.8986 17.5312C74.3887 17.5312 73.9335 17.4142 73.5328 17.1774C73.1322 16.9407 72.8174 16.6207 72.5885 16.2123C72.3596 15.8065 72.2451 15.346 72.2451 14.8361C72.2451 14.3262 72.357 13.858 72.5807 13.4496C72.8044 13.0437 73.1062 12.7211 73.4912 12.4844C73.8762 12.2477 74.3211 12.1306 74.8232 12.1306C75.2108 12.1306 75.5698 12.2061 75.9002 12.3595C76.2306 12.5104 76.5219 12.7394 76.7717 13.0437C76.8497 13.1348 76.8757 13.2258 76.8549 13.3195C76.8315 13.4131 76.7717 13.4964 76.6754 13.5666C76.5974 13.6186 76.5115 13.6369 76.4179 13.6186C76.3242 13.603 76.2384 13.5536 76.1603 13.4678C75.8039 13.0671 75.3591 12.8668 74.8232 12.8668C74.4668 12.8668 74.1546 12.9501 73.8866 13.1192C73.6187 13.2883 73.4106 13.5172 73.2623 13.8112C73.114 14.1051 73.0386 14.4459 73.0386 14.8335C73.0386 15.2211 73.1166 15.5437 73.2753 15.8377C73.434 16.1317 73.6525 16.3658 73.9335 16.5349C74.2144 16.7066 74.537 16.7924 74.8986 16.7924C75.1431 16.7924 75.3643 16.7612 75.562 16.6962C75.7597 16.6311 75.9366 16.5323 76.0901 16.3944C76.1811 16.3242 76.2722 16.2851 76.3606 16.2773C76.4517 16.2721 76.5349 16.2955 76.613 16.3554C76.6962 16.4334 76.7456 16.5193 76.7586 16.6181C76.7717 16.7144 76.7404 16.8028 76.6624 16.8809C76.1915 17.3127 75.6036 17.5312 74.8986 17.5312Z" fill="#6F2205"/>
<path d="M80.6867 17.5312C80.1768 17.5312 79.7216 17.4142 79.3209 17.1774C78.9203 16.9407 78.6055 16.6207 78.3766 16.2123C78.1477 15.8065 78.0332 15.346 78.0332 14.8361C78.0332 14.3262 78.1451 13.858 78.3688 13.4496C78.5925 13.0437 78.8943 12.7211 79.2793 12.4844C79.6643 12.2477 80.1092 12.1306 80.6112 12.1306C80.9989 12.1306 81.3579 12.2061 81.6883 12.3595C82.0186 12.5104 82.31 12.7394 82.5597 13.0437C82.6378 13.1348 82.6638 13.2258 82.643 13.3195C82.6196 13.4131 82.5597 13.4964 82.4635 13.5666C82.3854 13.6186 82.2996 13.6369 82.2059 13.6186C82.1123 13.603 82.0264 13.5536 81.9484 13.4678C81.592 13.0671 81.1471 12.8668 80.6112 12.8668C80.2548 12.8668 79.9427 12.9501 79.6747 13.1192C79.4068 13.2883 79.1987 13.5172 79.0504 13.8112C78.9021 14.1051 78.8267 14.4459 78.8267 14.8335C78.8267 15.2211 78.9047 15.5437 79.0634 15.8377C79.2221 16.1317 79.4406 16.3658 79.7216 16.5349C80.0025 16.7066 80.3251 16.7924 80.6867 16.7924C80.9312 16.7924 81.1524 16.7612 81.3501 16.6962C81.5478 16.6311 81.7247 16.5323 81.8782 16.3944C81.9692 16.3242 82.0603 16.2851 82.1487 16.2773C82.2398 16.2721 82.323 16.2955 82.4011 16.3554C82.4843 16.4334 82.5337 16.5193 82.5467 16.6181C82.5597 16.7144 82.5285 16.8028 82.4505 16.8809C81.9796 17.3127 81.3917 17.5312 80.6867 17.5312Z" fill="#6F2205"/>
<path d="M86.5115 17.5312C85.9886 17.5312 85.5256 17.4142 85.1197 17.1826C84.7165 16.9485 84.3965 16.6311 84.165 16.2227C83.9335 15.8143 83.8164 15.3538 83.8164 14.8361C83.8164 14.3184 83.9335 13.8476 84.165 13.4391C84.3965 13.0307 84.7165 12.7107 85.1197 12.4792C85.523 12.2477 85.986 12.1306 86.5115 12.1306C87.037 12.1306 87.4871 12.2477 87.8877 12.4792C88.2883 12.7107 88.6057 13.0307 88.8372 13.4391C89.0687 13.845 89.1884 14.3106 89.1962 14.8361C89.1962 15.3538 89.0792 15.8143 88.8476 16.2227C88.6161 16.6285 88.2961 16.9485 87.8929 17.1826C87.4897 17.4142 87.0292 17.5312 86.5115 17.5312ZM86.5115 16.7924C86.8731 16.7924 87.1957 16.7066 87.4819 16.5349C87.7654 16.3632 87.9891 16.1317 88.1504 15.8377C88.3117 15.5437 88.3924 15.2081 88.3924 14.8335C88.3924 14.4589 88.3117 14.1233 88.1504 13.8242C87.9891 13.5276 87.7654 13.2935 87.4819 13.1218C87.1983 12.9501 86.8731 12.8642 86.5115 12.8642C86.1499 12.8642 85.8247 12.9501 85.536 13.1218C85.2472 13.2935 85.0209 13.5276 84.857 13.8242C84.6931 14.1207 84.6098 14.4589 84.6098 14.8335C84.6098 15.2081 84.6931 15.5437 84.857 15.8377C85.0209 16.1317 85.2472 16.3658 85.536 16.5349C85.8247 16.704 86.1473 16.7924 86.5115 16.7924Z" fill="#6F2205"/>
<path d="M93.0645 17.5312C92.5416 17.5312 92.0785 17.4142 91.6727 17.1826C91.2695 16.9485 90.9495 16.6311 90.718 16.2227C90.4864 15.8143 90.3694 15.3538 90.3694 14.8361C90.3694 14.3184 90.4864 13.8476 90.718 13.4391C90.9495 13.0307 91.2695 12.7107 91.6727 12.4792C92.0759 12.2477 92.539 12.1306 93.0645 12.1306C93.59 12.1306 94.04 12.2477 94.4407 12.4792C94.8413 12.7107 95.1587 13.0307 95.3902 13.4391C95.6217 13.845 95.7414 14.3106 95.7492 14.8361C95.7492 15.3538 95.6321 15.8143 95.4006 16.2227C95.1691 16.6285 94.8491 16.9485 94.4459 17.1826C94.0426 17.4142 93.5822 17.5312 93.0645 17.5312ZM93.0645 16.7924C93.4261 16.7924 93.7487 16.7066 94.0348 16.5349C94.3184 16.3632 94.5421 16.1317 94.7034 15.8377C94.8647 15.5437 94.9453 15.2081 94.9453 14.8335C94.9453 14.4589 94.8647 14.1233 94.7034 13.8242C94.5421 13.5276 94.3184 13.2935 94.0348 13.1218C93.7513 12.9501 93.4261 12.8642 93.0645 12.8642C92.7029 12.8642 92.3777 12.9501 92.0889 13.1218C91.8002 13.2935 91.5739 13.5276 91.41 13.8242C91.2461 14.1207 91.1628 14.4589 91.1628 14.8335C91.1628 15.2081 91.2461 15.5437 91.41 15.8377C91.5739 16.1317 91.8002 16.3658 92.0889 16.5349C92.3777 16.704 92.7003 16.7924 93.0645 16.7924Z" fill="#6F2205"/>
<path d="M97.6223 17.4819C97.4922 17.4819 97.3908 17.4455 97.3179 17.37C97.2451 17.2946 97.2061 17.1983 97.2061 17.0735V12.5937C97.2061 12.4637 97.2425 12.3622 97.3179 12.2894C97.3934 12.2165 97.4948 12.1775 97.6223 12.1775C97.7498 12.1775 97.8434 12.2139 97.9189 12.2894C97.9943 12.3648 98.0307 12.4663 98.0307 12.5937V17.0735C98.0307 17.1957 97.9943 17.2946 97.9189 17.37C97.8434 17.4455 97.7446 17.4819 97.6223 17.4819ZM101.733 17.4819C101.61 17.4819 101.509 17.4429 101.431 17.3648C101.353 17.2868 101.314 17.1905 101.314 17.0735V14.6021C101.314 14.2066 101.241 13.8867 101.095 13.6369C100.95 13.3872 100.752 13.1999 100.5 13.075C100.247 12.9501 99.961 12.8851 99.6358 12.8851C99.3314 12.8851 99.0583 12.9449 98.8164 13.0646C98.5744 13.1843 98.3819 13.3456 98.2388 13.5485C98.0958 13.7514 98.0255 13.9855 98.0255 14.2509H97.4636C97.4766 13.845 97.5859 13.4808 97.7888 13.1609C97.9917 12.8409 98.2648 12.5885 98.6082 12.3986C98.9516 12.2113 99.3314 12.1177 99.7529 12.1177C100.206 12.1177 100.611 12.2139 100.97 12.4038C101.329 12.5937 101.613 12.8747 101.824 13.2415C102.034 13.6109 102.138 14.0636 102.138 14.5995V17.0708C102.138 17.1879 102.099 17.2842 102.021 17.3622C101.943 17.4403 101.847 17.4793 101.73 17.4793L101.733 17.4819Z" fill="#6F2205"/>
<path d="M108.925 17.5313C108.421 17.5313 107.976 17.4169 107.588 17.1879C107.201 16.959 106.896 16.639 106.678 16.2332C106.459 15.8274 106.347 15.3617 106.347 14.8362C106.347 14.3107 106.464 13.8373 106.696 13.4314C106.928 13.023 107.248 12.7056 107.651 12.4767C108.054 12.2478 108.517 12.1333 109.043 12.1333C109.568 12.1333 110.021 12.2478 110.424 12.4767C110.827 12.7056 111.145 13.023 111.373 13.4314C111.602 13.8373 111.722 14.3081 111.727 14.8362L111.243 15.0001C111.243 15.4918 111.145 15.9262 110.947 16.3086C110.749 16.6911 110.476 16.9902 110.127 17.2061C109.779 17.4221 109.378 17.5313 108.925 17.5313ZM109.043 19.6047C108.551 19.6047 108.111 19.511 107.718 19.3237C107.328 19.1364 107 18.8737 106.735 18.5381C106.665 18.4548 106.634 18.3612 106.647 18.2623C106.66 18.1609 106.712 18.0828 106.803 18.0256C106.899 17.9606 107.003 17.9372 107.112 17.958C107.222 17.9762 107.31 18.0334 107.375 18.1219C107.557 18.3482 107.789 18.5277 108.072 18.6656C108.356 18.8034 108.686 18.8685 109.061 18.8685C109.404 18.8685 109.716 18.7852 110 18.6213C110.283 18.4574 110.51 18.2181 110.674 17.9085C110.838 17.599 110.921 17.2296 110.921 16.8029V15.3669L111.212 14.7087L111.727 14.8336V16.8497C111.727 17.3674 111.61 17.8331 111.379 18.2519C111.147 18.6682 110.83 18.9985 110.429 19.2405C110.028 19.4824 109.565 19.6047 109.043 19.6047ZM109.043 16.7925C109.412 16.7925 109.735 16.7093 110.018 16.5402C110.299 16.3711 110.52 16.1421 110.681 15.8482C110.843 15.5542 110.923 15.216 110.923 14.8362C110.923 14.4564 110.843 14.1156 110.681 13.819C110.52 13.5225 110.299 13.2883 110.018 13.1219C109.737 12.9528 109.412 12.8695 109.043 12.8695C108.673 12.8695 108.348 12.9528 108.064 13.1219C107.781 13.2909 107.554 13.5225 107.391 13.819C107.227 14.1156 107.143 14.4564 107.143 14.8362C107.143 15.216 107.227 15.5542 107.391 15.8482C107.554 16.1421 107.781 16.3737 108.064 16.5402C108.348 16.7093 108.676 16.7925 109.043 16.7925Z" fill="#6F2205"/>
<path d="M115.479 17.5312C114.987 17.5312 114.547 17.4142 114.16 17.1774C113.772 16.9407 113.465 16.6207 113.239 16.2123C113.013 15.8039 112.901 15.346 112.901 14.8361C112.901 14.3262 113.018 13.858 113.254 13.4496C113.491 13.0437 113.811 12.7211 114.22 12.4844C114.625 12.2477 115.083 12.1306 115.585 12.1306C116.087 12.1306 116.553 12.2477 116.956 12.4844C117.36 12.7211 117.68 13.0411 117.916 13.4496C118.153 13.858 118.273 14.3184 118.28 14.8361L117.95 15C117.95 15.4787 117.841 15.9079 117.625 16.2903C117.409 16.6728 117.115 16.9745 116.743 17.1957C116.371 17.4168 115.95 17.5312 115.479 17.5312ZM115.596 16.7924C115.957 16.7924 116.28 16.7066 116.561 16.5349C116.842 16.3632 117.066 16.1291 117.229 15.8325C117.393 15.5359 117.477 15.2029 117.477 14.8335C117.477 14.4641 117.393 14.1233 117.229 13.8294C117.066 13.5354 116.842 13.3013 116.561 13.127C116.28 12.9527 115.957 12.8642 115.596 12.8642C115.234 12.8642 114.919 12.9527 114.631 13.127C114.342 13.3013 114.116 13.5354 113.946 13.8294C113.777 14.1233 113.694 14.4589 113.694 14.8335C113.694 15.2081 113.777 15.5359 113.946 15.8325C114.116 16.1291 114.342 16.3632 114.631 16.5349C114.917 16.7066 115.239 16.7924 115.596 16.7924ZM117.875 17.4818C117.752 17.4818 117.651 17.4454 117.57 17.3699C117.49 17.2945 117.448 17.1983 117.448 17.0734V15.4735L117.633 14.6306L118.283 14.8335V17.0734C118.283 17.1957 118.244 17.2945 118.166 17.3699C118.088 17.4454 117.992 17.4818 117.875 17.4818Z" fill="#6F2205"/>
<path d="M120.151 17.4819C120.021 17.4819 119.919 17.4455 119.846 17.37C119.774 17.2946 119.735 17.1983 119.735 17.0735V12.5937C119.735 12.4637 119.771 12.3622 119.846 12.2894C119.922 12.2165 120.023 12.1775 120.151 12.1775C120.278 12.1775 120.372 12.2139 120.447 12.2894C120.523 12.3648 120.559 12.4663 120.559 12.5937V17.0735C120.559 17.1957 120.523 17.2946 120.447 17.37C120.372 17.4455 120.273 17.4819 120.151 17.4819ZM124.264 17.4819C124.141 17.4819 124.04 17.4429 123.962 17.3648C123.884 17.2868 123.845 17.1905 123.845 17.0735V14.6021C123.845 14.2066 123.772 13.8867 123.626 13.6369C123.481 13.3872 123.283 13.1999 123.031 13.075C122.778 12.9501 122.492 12.8851 122.167 12.8851C121.863 12.8851 121.589 12.9449 121.348 13.0646C121.106 13.1843 120.913 13.3456 120.77 13.5485C120.627 13.7514 120.557 13.9855 120.557 14.2509H119.995C120.008 13.845 120.117 13.4808 120.32 13.1609C120.523 12.8409 120.796 12.5885 121.139 12.3986C121.483 12.2113 121.863 12.1177 122.284 12.1177C122.737 12.1177 123.143 12.2139 123.502 12.4038C123.861 12.5937 124.144 12.8747 124.355 13.2415C124.566 13.6109 124.67 14.0636 124.67 14.5995V17.0708C124.67 17.1879 124.631 17.2842 124.553 17.3622C124.474 17.4403 124.378 17.4793 124.261 17.4793L124.264 17.4819Z" fill="#6F2205"/>
<path d="M128.616 17.5313C128.111 17.5313 127.666 17.4169 127.279 17.1879C126.891 16.959 126.587 16.639 126.368 16.2332C126.15 15.8274 126.038 15.3617 126.038 14.8362C126.038 14.3107 126.155 13.8373 126.386 13.4314C126.621 13.023 126.938 12.7056 127.341 12.4767C127.744 12.2478 128.21 12.1333 128.733 12.1333C129.256 12.1333 129.711 12.2478 130.114 12.4767C130.518 12.7056 130.835 13.023 131.064 13.4314C131.293 13.8373 131.41 14.3081 131.418 14.8362L130.934 15.0001C130.934 15.4918 130.835 15.9262 130.637 16.3086C130.44 16.6911 130.166 16.9902 129.818 17.2061C129.469 17.4221 129.069 17.5313 128.616 17.5313ZM128.73 19.6047C128.239 19.6047 127.799 19.511 127.406 19.3237C127.013 19.1364 126.688 18.8737 126.423 18.5381C126.353 18.4548 126.321 18.3612 126.334 18.2623C126.347 18.1635 126.399 18.0828 126.491 18.0256C126.587 17.9606 126.691 17.9372 126.8 17.958C126.909 17.9762 126.998 18.0334 127.063 18.1219C127.245 18.3482 127.476 18.5277 127.76 18.6656C128.044 18.8008 128.374 18.8685 128.749 18.8685C129.092 18.8685 129.404 18.7852 129.688 18.6213C129.971 18.4574 130.198 18.2181 130.361 17.9085C130.525 17.599 130.609 17.2296 130.609 16.8029V15.3669L130.9 14.7087L131.415 14.8336V16.8497C131.415 17.3674 131.298 17.8331 131.066 18.2519C130.832 18.6682 130.518 18.9985 130.117 19.2405C129.716 19.4824 129.253 19.6047 128.73 19.6047ZM128.73 16.7925C129.1 16.7925 129.422 16.7093 129.706 16.5402C129.987 16.3711 130.208 16.1421 130.369 15.8482C130.531 15.5542 130.611 15.216 130.611 14.8362C130.611 14.4564 130.531 14.1156 130.369 13.819C130.208 13.5225 129.987 13.2883 129.706 13.1219C129.425 12.9528 129.1 12.8695 128.73 12.8695C128.361 12.8695 128.036 12.9528 127.752 13.1219C127.469 13.2909 127.242 13.5225 127.078 13.819C126.915 14.1156 126.831 14.4564 126.831 14.8362C126.831 15.216 126.915 15.5542 127.078 15.8482C127.242 16.1421 127.469 16.3737 127.752 16.5402C128.036 16.7067 128.364 16.7925 128.73 16.7925Z" fill="#6F2205"/>
<path d="M122.7 37.5886C125.383 37.5886 127.557 35.4141 127.557 32.7317C127.557 30.0493 125.383 27.8748 122.7 27.8748C120.018 27.8748 117.844 30.0493 117.844 32.7317C117.844 35.4141 120.018 37.5886 122.7 37.5886Z" fill="#6F2205"/>
<path d="M136.86 37.5886C139.543 37.5886 141.717 35.4141 141.717 32.7317C141.717 30.0493 139.543 27.8748 136.86 27.8748C134.178 27.8748 132.003 30.0493 132.003 32.7317C132.003 35.4141 134.178 37.5886 136.86 37.5886Z" fill="#6F2205"/>
<path d="M62.5026 38.4705C62.1956 38.4705 61.9355 38.3664 61.7274 38.1557C61.5167 37.945 61.4126 37.6874 61.4126 37.3805V23.1791C61.4126 22.8565 61.5167 22.5964 61.7274 22.3935C61.9381 22.1906 62.1956 22.0891 62.5026 22.0891H66.2799C67.3283 22.0891 68.2596 22.3102 69.0713 22.7499C69.8829 23.1895 70.5151 23.7957 70.9703 24.5657C71.4256 25.3357 71.6519 26.2306 71.6519 27.2504C71.6519 28.2025 71.4256 29.048 70.9703 29.7894C70.5151 30.5308 69.8829 31.111 69.0713 31.5298C68.2596 31.9486 67.3309 32.1594 66.2799 32.1594H63.5952V37.3831C63.5952 37.69 63.4938 37.9502 63.2908 38.1583C63.0879 38.369 62.8252 38.4731 62.5052 38.4731L62.5026 38.4705ZM63.5926 30.1406H66.2773C66.9199 30.1406 67.487 30.0184 67.9761 29.7738C68.4651 29.5293 68.8502 29.1859 69.1311 28.7462C69.4095 28.3066 69.55 27.8071 69.55 27.2452C69.55 26.6287 69.4095 26.0849 69.1311 25.6089C68.8502 25.1328 68.4677 24.7634 67.9761 24.4981C67.487 24.2327 66.9199 24.1 66.2773 24.1H63.5926V30.1406ZM71.2097 38.4705C71.0146 38.4705 70.8351 38.4289 70.6738 38.3456C70.5125 38.2624 70.3772 38.1297 70.2654 37.9476L66.488 31.8628L68.6056 31.254L72.0474 36.7925C72.2997 37.1984 72.3335 37.5782 72.1514 37.9372C71.9693 38.2936 71.6545 38.4731 71.2071 38.4731L71.2097 38.4705Z" fill="#6F2205"/>
<path d="M79.8518 38.5537C78.6915 38.5537 77.6587 38.3066 76.7586 37.8097C75.8559 37.3128 75.1509 36.6286 74.641 35.7545C74.1312 34.8805 73.8762 33.8763 73.8762 32.7447C73.8762 31.613 74.1182 30.5881 74.5994 29.714C75.0807 28.8399 75.7493 28.1557 76.6025 27.6588C77.4558 27.1619 78.434 26.9148 79.5396 26.9148C80.6452 26.9148 81.5661 27.1567 82.3518 27.638C83.1348 28.1219 83.7331 28.7852 84.1442 29.6307C84.5578 30.4762 84.7633 31.4517 84.7633 32.5574C84.7633 32.8227 84.6723 33.0438 84.4902 33.2181C84.3081 33.3924 84.0765 33.4809 83.7982 33.4809H75.3434V31.8029H83.7357L82.8747 32.3909C82.8617 31.6911 82.7212 31.0667 82.4558 30.5126C82.1905 29.9611 81.8133 29.5241 81.3242 29.2015C80.8351 28.8789 80.2394 28.7202 79.5422 28.7202C78.7461 28.7202 78.062 28.8945 77.4974 29.2457C76.9303 29.5969 76.5011 30.0756 76.2071 30.6817C75.9132 31.2904 75.7675 31.9798 75.7675 32.7473C75.7675 33.5147 75.9418 34.2015 76.293 34.8024C76.6416 35.4033 77.1254 35.8794 77.7394 36.228C78.3533 36.5792 79.0609 36.7535 79.857 36.7535C80.2914 36.7535 80.7337 36.6729 81.1889 36.5116C81.6442 36.3503 82.011 36.1656 82.2893 35.9549C82.5001 35.8014 82.7264 35.7207 82.9709 35.7129C83.2155 35.7051 83.4288 35.7806 83.6109 35.934C83.8476 36.1448 83.9751 36.3737 83.9881 36.626C84.0011 36.8784 83.8892 37.0943 83.6525 37.2764C83.1764 37.6536 82.5859 37.9632 81.8809 38.1999C81.1733 38.4366 80.4995 38.5563 79.857 38.5563L79.8518 38.5537Z" fill="#6F2205"/>
<path d="M92.6899 38.5538C91.5998 38.5538 90.6165 38.2989 89.7424 37.789C88.8683 37.2791 88.1763 36.5819 87.6664 35.7026C87.1566 34.8207 86.9016 33.8296 86.9016 32.724C86.9016 31.6183 87.1357 30.6298 87.604 29.7557C88.0723 28.8816 88.7122 28.1896 89.5239 27.6797C90.3355 27.1698 91.2513 26.9149 92.271 26.9149C93.0957 26.9149 93.8579 27.0866 94.5577 27.43C95.2575 27.7734 95.8454 28.2364 96.3189 28.8244V23.161C96.3189 22.8384 96.4203 22.5809 96.6233 22.3858C96.8262 22.1907 97.0811 22.0918 97.3881 22.0918C97.6951 22.0918 97.9682 22.1907 98.1633 22.3858C98.3584 22.5809 98.4573 22.841 98.4573 23.161V32.7266C98.4573 33.8322 98.2023 34.8233 97.6925 35.7052C97.1826 36.5871 96.4932 37.2817 95.6269 37.7916C94.7606 38.3015 93.7799 38.5564 92.6899 38.5564V38.5538ZM92.6899 36.6652C93.4027 36.6652 94.04 36.4935 94.5993 36.1501C95.1586 35.8067 95.5983 35.3358 95.9209 34.7349C96.2434 34.1339 96.4021 33.4628 96.4021 32.7213C96.4021 31.9799 96.2408 31.2958 95.9209 30.7078C95.5983 30.1199 95.1586 29.6568 94.5993 29.3134C94.04 28.97 93.4027 28.7984 92.6899 28.7984C91.9771 28.7984 91.3579 28.97 90.7908 29.3134C90.2237 29.6568 89.7762 30.1225 89.4484 30.7078C89.1207 31.2958 88.9542 31.9669 88.9542 32.7213C88.9542 33.4758 89.1181 34.1339 89.4484 34.7349C89.7762 35.3358 90.2237 35.8093 90.7908 36.1501C91.3579 36.4935 91.9901 36.6652 92.6899 36.6652Z" fill="#6F2205"/>
<path d="M104.878 38.4705C104.654 38.4705 104.448 38.4055 104.259 38.2702C104.069 38.1376 103.941 37.9737 103.871 37.776L100.765 28.4627C100.653 28.0283 100.656 27.6771 100.775 27.4039C100.895 27.1308 101.155 26.9955 101.561 26.9955C101.826 26.9955 102.047 27.0684 102.222 27.2166C102.396 27.3623 102.539 27.6121 102.651 27.9607L105.294 36.2255H104.56L107.058 27.7916C107.128 27.5548 107.248 27.3623 107.414 27.214C107.581 27.0684 107.812 26.9929 108.106 26.9929C108.4 26.9929 108.613 27.0658 108.788 27.214C108.962 27.3597 109.076 27.5548 109.134 27.7916L111.168 35.7208H110.853L113.33 27.9581C113.525 27.3155 113.889 26.9929 114.42 26.9929C114.81 26.9929 115.078 27.1282 115.216 27.4013C115.356 27.6745 115.349 28.0283 115.195 28.4601L112.089 37.7734C112.034 37.9685 111.915 38.135 111.733 38.2676C111.55 38.4003 111.34 38.4679 111.103 38.4679C110.879 38.4679 110.669 38.4029 110.473 38.2676C110.278 38.135 110.151 37.9711 110.096 37.7734L107.934 29.7817H108.145L105.879 37.7734C105.822 37.9685 105.7 38.135 105.512 38.2676C105.323 38.4003 105.109 38.4679 104.872 38.4679L104.878 38.4705Z" fill="#6F2205"/>
<path d="M122.711 38.5537C121.579 38.5537 120.578 38.3066 119.711 37.8097C118.845 37.3128 118.161 36.6286 117.667 35.7545C117.17 34.8805 116.923 33.8763 116.923 32.7447C116.923 31.613 117.17 30.5881 117.667 29.714C118.163 28.8399 118.845 28.1557 119.711 27.6588C120.578 27.1619 121.579 26.9148 122.711 26.9148C123.842 26.9148 124.823 27.1619 125.69 27.6588C126.556 28.1557 127.237 28.8399 127.734 29.714C128.231 30.5881 128.478 31.6 128.478 32.7447C128.478 33.8893 128.234 34.8805 127.745 35.7545C127.256 36.6286 126.577 37.3154 125.71 37.8097C124.844 38.3066 123.842 38.5537 122.711 38.5537ZM122.711 36.6651C123.437 36.6651 124.082 36.496 124.641 36.1604C125.2 35.8248 125.637 35.3617 125.952 34.7764C126.267 34.1911 126.423 33.5121 126.423 32.7421C126.423 31.972 126.267 31.2904 125.952 30.6973C125.637 30.1042 125.2 29.6385 124.641 29.3029C124.082 28.9673 123.439 28.7982 122.711 28.7982C121.982 28.7982 121.34 28.9673 120.781 29.3029C120.221 29.6385 119.782 30.1042 119.459 30.6973C119.136 31.293 118.978 31.9746 118.978 32.7421C118.978 33.5095 119.139 34.1885 119.459 34.7764C119.782 35.3643 120.221 35.8248 120.781 36.1604C121.34 36.496 121.982 36.6651 122.711 36.6651Z" fill="#FED39A"/>
<path d="M122.711 38.728C121.553 38.728 120.515 38.4704 119.623 37.9606C118.731 37.4507 118.02 36.7379 117.513 35.8404C117.003 34.9455 116.746 33.9023 116.746 32.7446C116.746 31.587 117.003 30.523 117.513 29.6281C118.023 28.7306 118.733 28.0178 119.623 27.5079C120.513 26.998 121.551 26.7405 122.711 26.7405C123.871 26.7405 124.886 26.998 125.775 27.5079C126.665 28.0178 127.375 28.7306 127.885 29.6281C128.395 30.5256 128.652 31.574 128.652 32.7446C128.652 33.9153 128.398 34.9429 127.895 35.8404C127.393 36.7379 126.686 37.4533 125.796 37.9632C124.906 38.473 123.868 38.7306 122.708 38.7306L122.711 38.728ZM122.711 27.0865C121.613 27.0865 120.635 27.3284 119.797 27.8071C118.962 28.2857 118.296 28.9543 117.817 29.7972C117.339 30.6401 117.097 31.6312 117.097 32.742C117.097 33.8529 117.339 34.8232 117.817 35.6661C118.296 36.509 118.962 37.1775 119.797 37.6562C120.635 38.1349 121.613 38.3768 122.711 38.3768C123.809 38.3768 124.787 38.1349 125.624 37.6562C126.459 37.1775 127.123 36.509 127.594 35.6661C128.067 34.8232 128.306 33.8373 128.306 32.7394C128.306 31.6416 128.065 30.6375 127.586 29.7946C127.107 28.9517 126.441 28.2831 125.606 27.8045C124.768 27.3258 123.796 27.0839 122.713 27.0839L122.711 27.0865ZM122.711 36.8393C121.954 36.8393 121.275 36.6624 120.692 36.3112C120.107 35.96 119.641 35.4736 119.308 34.8596C118.972 34.2509 118.803 33.5355 118.803 32.7394C118.803 31.9434 118.972 31.228 119.308 30.6114C119.644 29.9923 120.109 29.5006 120.695 29.1494C121.28 28.7982 121.959 28.6213 122.713 28.6213C123.468 28.6213 124.149 28.7982 124.732 29.1494C125.315 29.5006 125.78 29.9923 126.108 30.6114C126.436 31.228 126.6 31.9434 126.6 32.7394C126.6 33.5355 126.433 34.2457 126.108 34.857C125.78 35.4684 125.317 35.9574 124.732 36.3086C124.147 36.6598 123.468 36.8367 122.713 36.8367L122.711 36.8393ZM122.711 28.9725C122.019 28.9725 121.4 29.1338 120.872 29.4512C120.341 29.7686 119.919 30.216 119.612 30.7805C119.305 31.3451 119.152 32.0058 119.152 32.742C119.152 33.4783 119.308 34.1364 119.612 34.6931C119.917 35.2498 120.341 35.6947 120.872 36.0121C121.4 36.3294 122.019 36.4907 122.711 36.4907C123.403 36.4907 124.022 36.3294 124.55 36.0121C125.081 35.6947 125.5 35.2498 125.799 34.6957C126.098 34.1364 126.249 33.4809 126.249 32.742C126.249 32.0032 126.098 31.3451 125.796 30.7779C125.497 30.216 125.078 29.7686 124.55 29.4512C124.019 29.1338 123.4 28.9725 122.711 28.9725Z" fill="#33281C"/>
<path d="M136.871 38.5537C135.739 38.5537 134.737 38.3066 133.871 37.8097C133.005 37.3128 132.321 36.6286 131.826 35.7545C131.329 34.8805 131.082 33.8763 131.082 32.7447C131.082 31.613 131.329 30.5881 131.826 29.714C132.323 28.8399 133.005 28.1557 133.871 27.6588C134.737 27.1619 135.739 26.9148 136.871 26.9148C138.002 26.9148 138.983 27.1619 139.849 27.6588C140.715 28.1557 141.397 28.8399 141.894 29.714C142.391 30.5881 142.638 31.6 142.638 32.7447C142.638 33.8893 142.393 34.8805 141.904 35.7545C141.415 36.6286 140.736 37.3154 139.87 37.8097C139.004 38.3066 138.002 38.5537 136.871 38.5537ZM136.871 36.6651C137.596 36.6651 138.241 36.496 138.801 36.1604C139.36 35.8248 139.797 35.3617 140.112 34.7764C140.427 34.1885 140.583 33.5121 140.583 32.7421C140.583 31.972 140.427 31.2904 140.112 30.6973C139.797 30.1042 139.36 29.6385 138.801 29.3029C138.241 28.9673 137.599 28.7982 136.871 28.7982C136.142 28.7982 135.5 28.9673 134.94 29.3029C134.381 29.6385 133.941 30.1042 133.619 30.6973C133.296 31.293 133.137 31.9746 133.137 32.7421C133.137 33.5095 133.299 34.1885 133.619 34.7764C133.941 35.3643 134.381 35.8248 134.94 36.1604C135.5 36.496 136.142 36.6651 136.871 36.6651Z" fill="#FED39A"/>
<path d="M136.87 38.728C135.713 38.728 134.675 38.4704 133.782 37.9606C132.893 37.4507 132.183 36.7379 131.673 35.8404C131.163 34.9429 130.905 33.9023 130.905 32.7446C130.905 31.587 131.163 30.523 131.673 29.6281C132.183 28.7306 132.893 28.0178 133.782 27.5079C134.672 26.998 135.71 26.7405 136.87 26.7405C138.031 26.7405 139.045 26.998 139.935 27.5079C140.825 28.0178 141.535 28.7306 142.045 29.6281C142.555 30.5256 142.812 31.574 142.812 32.7446C142.812 33.9153 142.557 34.9429 142.055 35.8404C141.553 36.7379 140.845 37.4533 139.956 37.9632C139.066 38.473 138.028 38.7306 136.868 38.7306L136.87 38.728ZM136.87 27.0865C135.773 27.0865 134.794 27.3284 133.957 27.8071C133.122 28.2857 132.456 28.9543 131.977 29.7972C131.498 30.6401 131.256 31.6312 131.256 32.742C131.256 33.8529 131.498 34.8232 131.977 35.6661C132.456 36.509 133.122 37.1775 133.957 37.6562C134.794 38.1349 135.773 38.3768 136.87 38.3768C137.968 38.3768 138.946 38.1349 139.784 37.6562C140.619 37.1775 141.282 36.509 141.753 35.6661C142.227 34.8232 142.466 33.8373 142.466 32.7394C142.466 31.6416 142.224 30.6375 141.746 29.7946C141.267 28.9517 140.601 28.2831 139.766 27.8045C138.928 27.3258 137.955 27.0839 136.873 27.0839L136.87 27.0865ZM136.87 36.8393C136.113 36.8393 135.434 36.6624 134.852 36.3112C134.266 35.96 133.801 35.4736 133.468 34.8596C133.132 34.2483 132.963 33.5355 132.963 32.7394C132.963 31.9434 133.132 31.228 133.468 30.6114C133.803 29.9923 134.269 29.5006 134.854 29.1494C135.44 28.7982 136.119 28.6213 136.873 28.6213C137.627 28.6213 138.309 28.7982 138.892 29.1494C139.477 29.5006 139.938 29.9923 140.268 30.6114C140.596 31.2306 140.76 31.946 140.76 32.7394C140.76 33.5329 140.593 34.2457 140.265 34.857C139.938 35.4684 139.474 35.9574 138.892 36.3086C138.306 36.6598 137.627 36.8367 136.87 36.8367V36.8393ZM136.87 28.9725C136.178 28.9725 135.559 29.1338 135.031 29.4512C134.5 29.7686 134.079 30.216 133.772 30.7805C133.465 31.3477 133.312 32.0058 133.312 32.742C133.312 33.4783 133.468 34.1364 133.772 34.6931C134.076 35.2498 134.5 35.6947 135.031 36.0121C135.559 36.3294 136.178 36.4907 136.87 36.4907C137.562 36.4907 138.182 36.3294 138.71 36.0121C139.238 35.6947 139.659 35.2498 139.956 34.6957C140.255 34.1364 140.408 33.4783 140.408 32.742C140.408 32.0058 140.258 31.3451 139.956 30.7779C139.657 30.216 139.238 29.7686 138.71 29.4512C138.179 29.1338 137.56 28.9725 136.87 28.9725Z" fill="#33281C"/>
<path d="M151.03 38.5538C149.94 38.5538 148.957 38.2989 148.083 37.789C147.209 37.2791 146.517 36.5819 146.007 35.7026C145.497 34.8207 145.242 33.8296 145.242 32.724C145.242 31.6183 145.476 30.6298 145.944 29.7557C146.413 28.8816 147.053 28.1896 147.864 27.6797C148.676 27.1698 149.592 26.9149 150.611 26.9149C151.436 26.9149 152.198 27.0866 152.898 27.43C153.598 27.7734 154.186 28.2364 154.659 28.8244V23.161C154.659 22.8384 154.761 22.5809 154.964 22.3858C155.167 22.1907 155.421 22.0918 155.728 22.0918C156.035 22.0918 156.309 22.1907 156.504 22.3858C156.699 22.5809 156.798 22.841 156.798 23.161V32.7266C156.798 33.8322 156.543 34.8233 156.033 35.7052C155.523 36.5871 154.834 37.2817 153.967 37.7916C153.101 38.3015 152.12 38.5564 151.03 38.5564V38.5538ZM151.03 36.6652C151.743 36.6652 152.38 36.4935 152.94 36.1501C153.499 35.8067 153.939 35.3358 154.261 34.7349C154.584 34.1339 154.742 33.4628 154.742 32.7213C154.742 31.9799 154.581 31.2958 154.261 30.7078C153.939 30.1199 153.499 29.6568 152.94 29.3134C152.38 28.97 151.743 28.7984 151.03 28.7984C150.317 28.7984 149.698 28.97 149.131 29.3134C148.564 29.6568 148.117 30.1225 147.789 30.7078C147.461 31.2958 147.294 31.9669 147.294 32.7213C147.294 33.4758 147.458 34.1339 147.789 34.7349C148.117 35.3358 148.564 35.8093 149.131 36.1501C149.698 36.4935 150.33 36.6652 151.03 36.6652Z" fill="#6F2205"/>
<circle cx="20.2807" cy="21.9191" r="2.19157" fill="#FED39A"/>
<path d="M33.8347 4.59692C44.995 4.62034 54.035 13.6734 54.035 24.8389C54.035 34.9429 46.6313 43.3196 36.9513 44.8363C35.3149 45.0938 33.8347 43.8373 33.8347 42.1828V4.59692Z" fill="#FED39A"/>
<path d="M36.5298 45.0001C35.8586 45.0001 35.2056 44.7634 34.6879 44.3211C34.0636 43.7852 33.7046 43.0074 33.7046 42.1853V4.4668H33.8347C45.0443 4.49021 54.1651 13.6291 54.1651 24.8388C54.1651 29.7243 52.4091 34.4486 49.2223 38.1427C46.0667 41.7977 41.7171 44.2197 36.972 44.9637C36.8237 44.9871 36.6781 44.9975 36.5298 44.9975V45.0001ZM33.9647 4.72694V42.1827C33.9647 42.9293 34.2899 43.6369 34.857 44.1208C35.4294 44.6099 36.1864 44.8232 36.9304 44.7061C41.613 43.9725 45.908 41.5792 49.0246 37.971C52.1723 34.3237 53.9049 29.6593 53.9049 24.8362C53.9049 13.8112 44.9715 4.81799 33.9647 4.72434V4.72694Z" fill="#33281C"/>
<path d="M33.8347 8.80078C42.6927 8.80078 49.8727 15.9808 49.8727 24.8388C49.8727 33.6967 42.6927 40.8767 33.8347 40.8767V8.80078Z" fill="#6F2205"/>
<path d="M33.8347 41.0094H33.7046V8.67065H33.8347C42.7499 8.67065 50.0027 15.9235 50.0027 24.8387C50.0027 33.7539 42.7499 41.0094 33.8347 41.0094ZM33.9647 8.9308V40.7492C42.677 40.679 49.7426 33.5692 49.7426 24.8413C49.7426 16.1134 42.677 9.00364 33.9647 8.9334V8.9308Z" fill="#33281C"/>
<path d="M31.189 40.8793V4.7555C29.9143 4.82313 29.1287 5.33822 29.1287 5.33822C29.1287 5.33822 25.2655 -1.46459 21.8888 0.483904C20.2083 1.45425 21.1916 8.43916 21.1916 8.43916C17.8592 10.4319 14.6282 13.4444 12.1828 17.9891C12.1828 17.9891 10.5777 21.7326 4.05584 26.9719C-2.46601 32.2113 4.6984 33.923 4.6984 33.923C4.6984 33.923 7.79934 37.4506 21.9122 37.8798M18.1896 21.9121C18.1896 20.7623 19.1209 19.8309 20.2707 19.8309C21.4206 19.8309 22.3519 20.7623 22.3519 21.9121C22.3519 23.0619 21.4206 23.9933 20.2707 23.9933C19.1209 23.9933 18.1896 23.0619 18.1896 21.9121Z" fill="#FED39A"/>
<path d="M31.3191 40.8794H31.059V4.89345C29.9169 4.9871 29.2067 5.43975 29.1989 5.44496L29.0818 5.5204L29.0142 5.40073C28.9908 5.35651 26.535 1.07971 23.8971 0.361709C23.2 0.171803 22.547 0.249846 21.9513 0.593239C20.6349 1.35286 21.0459 6.49855 21.3165 8.41842L21.3295 8.50427L21.2541 8.54849C17.4898 10.7988 14.4747 13.9959 12.292 18.049C12.2816 18.075 10.6063 21.8706 4.13387 27.0709C2.10734 28.6968 1.21764 30.1302 1.48819 31.3321C1.88361 33.0932 4.69579 33.7878 4.7244 33.793L4.76343 33.8034L4.79204 33.8347C4.79204 33.8347 5.59589 34.7166 8.09329 35.6297C10.4008 36.4751 14.6698 37.5261 21.9148 37.7472L21.907 38.0074C8.43668 37.599 4.98715 34.4122 4.62815 34.0376C4.26135 33.9439 1.64688 33.2129 1.23845 31.3893C0.944488 30.0834 1.8654 28.5641 3.97519 26.868C10.3904 21.7145 12.0475 17.9736 12.0631 17.9372C14.2587 13.8581 17.2816 10.6427 21.0511 8.37159C20.9393 7.52872 20.1719 1.32425 21.8238 0.369513C22.4819 -0.0102993 23.2026 -0.0961473 23.9674 0.111969C26.4934 0.798754 28.7567 4.4486 29.1755 5.1588C29.4434 5.01311 30.1562 4.68013 31.1812 4.6255L31.3191 4.61769V40.8794ZM20.2707 24.1234C19.0506 24.1234 18.0595 23.1323 18.0595 21.9122C18.0595 20.6921 19.0506 19.7009 20.2707 19.7009C21.4908 19.7009 22.4819 20.6921 22.4819 21.9122C22.4819 23.1323 21.4908 24.1234 20.2707 24.1234ZM20.2707 19.9611C19.1937 19.9611 18.3196 20.8378 18.3196 21.9122C18.3196 22.9866 19.1963 23.8633 20.2707 23.8633C21.3451 23.8633 22.2218 22.9866 22.2218 21.9122C22.2218 20.8378 21.3451 19.9611 20.2707 19.9611Z" fill="#33281C"/>
<path d="M17.5391 18.309C12.5443 21.769 11.6546 23.9178 11.587 24.9271C11.561 25.3017 11.7899 25.6425 12.1281 25.8038C17.4376 28.3246 20.536 33.5119 21.228 34.771C21.3242 34.9453 21.3763 35.1378 21.3815 35.3356C21.3997 35.9755 21.4907 37.4948 21.907 37.8746C23.8268 39.628 27.037 40.8793 31.1863 40.8793V25.424C26.2176 20.7778 20.7129 18.7253 18.8138 18.1139C18.382 17.976 17.9111 18.0489 17.5391 18.309ZM18.2415 22.3881C17.9059 20.8689 19.2275 19.5473 20.7467 19.8829C21.5115 20.052 22.1307 20.6711 22.2998 21.436C22.6354 22.9552 21.3138 24.2794 19.7946 23.9412C19.0297 23.7721 18.4106 23.1529 18.2415 22.3881Z" fill="#6F2205"/>
<path d="M31.3189 41.0094H31.1889C27.3491 41.0094 23.936 39.9011 21.8236 37.9709C21.3866 37.5728 21.2799 36.1498 21.2565 35.3382C21.2513 35.1587 21.2045 34.9896 21.1186 34.8335C20.3122 33.3663 17.2763 28.3923 12.076 25.9209C11.6753 25.731 11.4334 25.3356 11.4594 24.9168C11.5245 23.9178 12.3933 21.7144 17.4662 18.2024C17.872 17.9214 18.3923 17.8434 18.8554 17.9917C20.9495 18.6629 26.3502 20.7232 31.2773 25.3304L31.3189 25.3694V41.0094ZM18.3793 18.1764C18.1114 18.1764 17.8408 18.257 17.6145 18.4157C12.6327 21.8652 11.782 23.9802 11.7196 24.935C11.6988 25.2471 11.8835 25.5411 12.1878 25.6868C17.4584 28.1894 20.5307 33.2258 21.3476 34.7086C21.4542 34.9011 21.5115 35.1119 21.5193 35.333C21.5583 36.6259 21.7378 37.5416 22.0031 37.781C24.0453 39.6462 27.3413 40.7258 31.064 40.7518V25.4839C26.1863 20.9391 20.8533 18.9074 18.7825 18.2414C18.6525 18.1998 18.5198 18.179 18.3845 18.179L18.3793 18.1764ZM20.2654 24.1233C20.0989 24.1233 19.9324 24.1051 19.7659 24.0687C18.9568 23.8892 18.2935 23.2258 18.114 22.4168C17.9449 21.6597 18.1686 20.8871 18.7045 20.3486C19.243 19.8101 20.0156 19.589 20.7726 19.7555C21.5817 19.935 22.2451 20.5983 22.4246 21.4074C22.5937 22.1644 22.3699 22.937 21.8314 23.4755C21.4126 23.8944 20.8481 24.1233 20.2628 24.1233H20.2654ZM20.2758 19.961C19.7581 19.961 19.2612 20.1613 18.8892 20.5307C18.4131 21.0068 18.218 21.6883 18.3663 22.3595C18.525 23.0723 19.1077 23.655 19.8205 23.8137C20.4891 23.962 21.1733 23.7669 21.6493 23.2908C22.1254 22.8148 22.3205 22.1332 22.1722 21.462C22.0135 20.7492 21.4308 20.1665 20.718 20.0078C20.5697 19.974 20.4214 19.9584 20.2758 19.9584V19.961Z" fill="#33281C"/>
<path d="M0.385199 28.9414C-0.246955 29.7348 0.400808 32.149 1.19685 33.0439C1.50643 33.3925 1.74316 34.0194 4.69581 33.9206C7.64847 33.8217 6.77178 29.1521 6.43098 28.4159C6.09019 27.6797 5.43463 27.5418 5.43463 27.5418C5.43463 27.5418 2.12037 26.764 0.385199 28.9414Z" fill="#6F2205"/>
<path d="M4.11561 34.0585C1.86014 34.0585 1.45172 33.5564 1.17336 33.2156C1.14735 33.1844 1.12393 33.1557 1.10052 33.1271C0.301872 32.2296 -0.413529 29.7322 0.286263 28.8581C2.05265 26.6443 5.43455 27.4039 5.46836 27.4143C5.49438 27.4195 6.19157 27.573 6.55317 28.3613C6.83153 28.9674 7.34662 31.6209 6.45172 33.0751C6.0693 33.6969 5.48137 34.0246 4.70354 34.0507C4.49542 34.0585 4.30031 34.0611 4.11821 34.0611L4.11561 34.0585ZM4.07659 27.5392C2.98397 27.5392 1.46732 27.7941 0.489176 29.0194C-0.0727383 29.7244 0.504785 32.0657 1.29563 32.9554C1.32164 32.9867 1.34766 33.0179 1.37627 33.0517C1.64422 33.3795 2.05005 33.879 4.69313 33.7879C5.37731 33.7645 5.8924 33.4783 6.22799 32.9346C7.07607 31.5585 6.55057 28.9752 6.31644 28.4679C6.00947 27.8046 5.43455 27.6719 5.41113 27.6667C5.39813 27.6641 4.84141 27.5392 4.07919 27.5392H4.07659Z" fill="#33281C"/>
</g>
<defs>
<clipPath id="clip0_4747_538">
<rect width="156.8" height="45" fill="white"/>
</clipPath>
</defs>
</svg>
