<svg width="127" height="45" viewBox="0 0 127 45" fill="none" xmlns="http://www.w3.org/2000/svg">
<path d="M17.6902 28.0235C19.41 28.0235 20.6385 29.2971 20.6385 30.077C20.6385 30.8568 19.6557 31.6473 17.5673 31.6473C16.4617 31.6473 15.7246 30.6809 15.7246 29.9562C15.7246 29.2314 15.9703 28.0235 17.6902 28.0235Z" fill="white"/>
<path d="M38.3287 28.0235C36.6088 28.0235 35.3803 29.2971 35.3803 30.077C35.3803 30.8568 36.3631 31.6473 38.4515 31.6473C39.5571 31.6473 40.2942 30.6809 40.2942 29.9562C40.2942 29.2314 40.0485 28.0235 38.3287 28.0235Z" fill="white"/>
<path fill-rule="evenodd" clip-rule="evenodd" d="M25.921 11.8375C26.2895 10.8712 27.3952 8.33458 31.0806 7.85142C28.1323 7.12667 24.8154 8.51042 23.8326 10.1464C23.8326 8.69695 22.039 4.70411 18.3044 3.93105C18.3863 4.25316 18.5009 5.09064 18.3044 5.8637C16.3388 4.0921 11.2038 0.693848 6.38811 1.27364C5.61007 5.78318 4.9385 15.8652 8.47653 20.117C6.51096 19.8755 4.05399 21.4457 3.3169 23.7408C4.05399 23.1368 6.09328 23.1127 6.38811 23.4992C4.58634 24.7071 0.786229 27.7027 0 30.0219C0.491393 29.7401 1.71988 29.273 2.70266 29.6595C2.37507 29.8206 1.71988 30.2877 1.71988 30.8674C2.78456 32.3169 5.87215 35.4334 9.70502 36.303C9.17267 33.5651 9.877 27.2196 14.0047 24.7071C13.7181 24.4253 12.506 24.2723 11.4249 24.4655C13.3905 22.7342 18.4027 20.6002 23.2183 24.9487C23.7507 24.7474 24.5697 23.7166 24.5697 22.6537C25.9619 26.68 26.4124 35.8199 17.0759 40.1684C18.5091 41.6581 22.1373 44.7101 25.1839 45C24.4468 43.2687 24.6434 39.8785 31.3263 40.1684C31.0806 39.806 30.0487 39.1296 27.8866 39.3228V12.9904C27.8866 11.8813 27.4325 12.0033 26.9444 12.1344C26.553 12.2395 26.1397 12.3506 25.921 11.8375ZM17.4445 12.3864C16.4617 10.5746 13.6853 6.83003 10.4421 6.34687C11.3839 7.39372 13.243 9.89812 13.1448 11.5409C12.162 11.4201 9.95071 11.2993 8.96793 11.7825C10.1145 12.2254 12.5551 13.546 13.1448 15.2854C13.8819 14.3191 15.7737 12.3864 17.4445 12.3864Z" fill="white"/>
<path d="M28.7465 13.0748C31.1348 7.48594 38.7414 -2.80931 50.0619 0.720486L44.33 4.77975L42.3597 4.25028L43.0762 5.30922L39.6729 7.95657C39.1952 7.72125 37.8817 7.25061 36.4487 7.25061C36.9263 7.72125 37.9533 8.80372 38.2399 9.36849L33.4036 13.6042C38.1802 11.1922 49.4887 8.76842 56.5102 18.3695L49.5245 18.0165L48.2707 16.4281V17.6635H43.9718L42.3597 15.1927L42.0014 17.6635H35.5531C40.9864 19.0754 51.5307 24.7937 50.241 36.3715L44.8674 31.0768V29.4883L43.6135 30.1943L40.9267 27.7234V24.7231L39.1355 26.135C36.7472 24.1348 31.4691 19.9932 29.463 19.4284C30.5377 21.4875 32.7588 26.5233 33.0454 30.1943C32.7469 30.7238 31.4691 31.818 28.7465 31.9592C29.8809 32.1357 32.4006 32.3828 33.4036 31.9592C33.6425 33.1946 34.0843 35.9832 33.941 37.2539C33.2842 37.6657 31.3258 38.454 28.7465 38.3128V31.9592V13.0748Z" fill="white"/>
<path d="M67.8607 39.1363H63.777C63.6586 39.1363 63.5994 39.0781 63.5994 38.9617L63.6704 14.3982C63.6704 14.3051 63.7178 14.2585 63.8125 14.2585H70.8081C73.0335 14.2585 74.7913 14.9278 76.0815 16.2662C77.3835 17.593 78.0346 19.4028 78.0346 21.6957C78.0346 23.3717 77.6972 24.8323 77.0225 26.0777C76.336 27.3114 75.4482 28.2657 74.3592 28.9408C73.2702 29.6158 72.0865 29.9533 70.8081 29.9533H68.0383V38.9617C68.0383 39.0781 67.9791 39.1363 67.8607 39.1363ZM70.8081 18.5008L68.0383 18.5358V25.6237H70.8081C71.5775 25.6237 72.2463 25.2629 72.8145 24.5413C73.3827 23.8081 73.6667 22.8595 73.6667 21.6957C73.6667 20.7646 73.4122 20.0022 72.9033 19.4087C72.3943 18.8035 71.6959 18.5008 70.8081 18.5008Z" fill="white"/>
<path d="M78.9934 38.9617L83.5033 14.3982C83.5269 14.3051 83.5861 14.2585 83.6808 14.2585H88.9542C89.0489 14.2585 89.108 14.3051 89.1317 14.3982L93.464 38.9617C93.4759 39.0781 93.4285 39.1363 93.322 39.1363H89.2915C89.1731 39.1363 89.108 39.0781 89.0962 38.9617L88.7056 36.343H83.7518L83.3612 38.9617C83.3494 39.0781 83.2902 39.1363 83.1836 39.1363H79.1354C79.0407 39.1363 78.9934 39.0781 78.9934 38.9617ZM86.4862 22.4813L86.2731 21.1545L86.1133 22.4813L84.4798 32.5197H87.9776L86.4862 22.4813Z" fill="white"/>
<path d="M107.633 39.1363H95.8788C95.7841 39.1363 95.7367 39.0781 95.7367 38.9617L95.7722 14.4331C95.7722 14.3167 95.8314 14.2585 95.9498 14.2585H99.998C100.116 14.2585 100.176 14.3167 100.176 14.4331L100.14 34.7369H107.633C107.751 34.7369 107.81 34.7951 107.81 34.9114V38.9617C107.81 39.0781 107.751 39.1363 107.633 39.1363Z" fill="white"/>
<path d="M114.451 39.1363H110.332C110.237 39.1363 110.19 39.0781 110.19 38.9617L110.261 14.3982C110.261 14.3051 110.308 14.2585 110.403 14.2585H114.842C114.936 14.2585 115.019 14.3051 115.09 14.3982L118.41 19.1119L121.713 14.3982C121.784 14.3051 121.873 14.2585 121.979 14.2585H126.436C126.542 14.2585 126.596 14.3051 126.596 14.3982L126.667 38.9617C126.667 39.0781 126.619 39.1363 126.525 39.1363H122.405C122.311 39.1363 122.263 39.0781 122.263 38.9617L122.228 20.718L118.41 26.1649L114.628 20.718L114.593 38.9617C114.593 39.0781 114.546 39.1363 114.451 39.1363Z" fill="white"/>
<path d="M64.9925 11.3544H63.6565C63.6258 11.3544 63.6105 11.3355 63.6105 11.2977L63.6335 3.33119C63.6335 3.30099 63.6488 3.28589 63.6796 3.28589H66.0636C66.4897 3.28589 66.8813 3.38781 67.2383 3.59165C67.5954 3.79548 67.8794 4.06915 68.0906 4.41265C68.3056 4.75615 68.4131 5.14494 68.4131 5.57904C68.4131 5.86214 68.3689 6.11882 68.2806 6.34908C68.1923 6.57934 68.0887 6.77374 67.9697 6.93227C67.8545 7.09081 67.7489 7.20783 67.6529 7.28332C68.0791 7.74761 68.2921 8.29306 68.2921 8.91966L68.3036 11.2977C68.3036 11.3355 68.2845 11.3544 68.2461 11.3544H66.9101C66.8794 11.3544 66.864 11.343 66.864 11.3204V8.91966C66.864 8.64034 66.7642 8.39875 66.5646 8.19492C66.365 7.99108 66.1193 7.88916 65.8275 7.88916H65.0501L65.0386 11.2977C65.0386 11.3355 65.0232 11.3544 64.9925 11.3544ZM66.0636 4.6731H65.0501V6.49629H66.0636C66.3054 6.49629 66.5204 6.40759 66.7085 6.23018C66.9005 6.05276 66.9965 5.83572 66.9965 5.57904C66.9965 5.33368 66.9043 5.1223 66.7201 4.94488C66.5358 4.7637 66.317 4.6731 66.0636 4.6731Z" fill="white"/>
<path d="M71.2175 11.4676C70.7913 11.4676 70.4074 11.3638 70.0658 11.1562C69.7202 10.9486 69.4419 10.6692 69.2308 10.3182C69.0235 9.96715 68.9198 9.57458 68.9198 9.14048V5.46579C68.9198 5.04303 69.0254 4.658 69.2365 4.31073C69.4438 3.95968 69.7222 3.68035 70.0715 3.47274C70.4209 3.26136 70.8028 3.15567 71.2175 3.15567C71.6513 3.15567 72.0428 3.25758 72.3922 3.46142C72.7415 3.66903 73.018 3.94647 73.2214 4.29374C73.4287 4.64102 73.5324 5.0317 73.5324 5.46579V5.99803C73.5324 6.02823 73.5132 6.04333 73.4748 6.04333H72.1503C72.1196 6.04333 72.1043 6.02823 72.1043 5.99803V5.55639C72.1043 5.26196 72.0198 5.01849 71.8509 4.82598C71.682 4.63347 71.4708 4.53721 71.2175 4.53721C70.991 4.53721 70.7894 4.62969 70.6128 4.81466C70.4362 4.99962 70.3479 5.21666 70.3479 5.46579V9.14048C70.3479 9.39339 70.4343 9.61232 70.607 9.79729C70.7798 9.97847 70.9833 10.0691 71.2175 10.0691C71.4708 10.0691 71.682 9.98036 71.8509 9.80295C72.0198 9.62176 72.1043 9.40094 72.1043 9.14048V8.56861H71.2808C71.2386 8.56861 71.2175 8.54974 71.2175 8.51199V7.21538C71.2175 7.17763 71.2386 7.15876 71.2808 7.15876H73.4863C73.517 7.15876 73.5324 7.17763 73.5324 7.21538V9.14048C73.5324 9.57458 73.4287 9.96715 73.2214 10.3182C73.0103 10.6692 72.7319 10.9486 72.3864 11.1562C72.0409 11.3638 71.6513 11.4676 71.2175 11.4676Z" fill="white"/>
</svg>
