<svg width="125" height="45" viewBox="0 0 125 45" fill="none" xmlns="http://www.w3.org/2000/svg">
<path d="M17.3304 28.0235C19.0153 28.0235 20.2188 29.2971 20.2188 30.077C20.2188 30.8568 19.256 31.6473 17.2101 31.6473C16.1269 31.6473 15.4048 30.6809 15.4048 29.9562C15.4048 29.2314 15.6455 28.0235 17.3304 28.0235Z" fill="black"/>
<path d="M37.5493 28.0235C35.8644 28.0235 34.6608 29.2971 34.6609 30.077C34.6609 30.8568 35.6237 31.6473 37.6696 31.6473C38.7528 31.6473 39.4749 30.6809 39.4749 29.9562C39.4749 29.2314 39.2342 28.0235 37.5493 28.0235Z" fill="black"/>
<path fill-rule="evenodd" clip-rule="evenodd" d="M25.3939 11.8375C25.7549 10.8712 26.8381 8.33458 30.4486 7.85142C27.5602 7.12667 24.3107 8.51042 23.3479 10.1464C23.3479 8.69695 21.5908 4.70411 17.9322 3.93105C18.0124 4.25316 18.1247 5.09064 17.9322 5.8637C16.0066 4.0921 10.9759 0.693848 6.2582 1.27364C5.49599 5.78318 4.83807 15.8652 8.30416 20.117C6.37856 19.8755 3.97156 21.4457 3.24945 23.7408C3.97156 23.1368 5.96937 23.1127 6.25821 23.4992C4.49307 24.7071 0.770241 27.7027 0 30.0219C0.481401 29.7401 1.6849 29.273 2.6477 29.6595C2.32677 29.8206 1.6849 30.2877 1.6849 30.8674C2.72794 32.3169 5.75274 35.4333 9.50766 36.303C8.98615 33.5651 9.67616 27.2196 13.7199 24.7071C13.4391 24.4253 12.2516 24.2723 11.1926 24.4655C13.1182 22.7342 18.0285 20.6002 22.7462 24.9487C23.2677 24.7474 24.07 23.7166 24.07 22.6537C25.434 26.68 25.8753 35.8199 16.7287 40.1684C18.1328 41.6581 21.6871 44.7101 24.6718 45C23.9497 43.2687 24.1422 39.8785 30.6893 40.1684C30.4486 39.806 29.4377 39.1296 27.3195 39.3228V12.9904C27.3195 11.8813 26.8747 12.0033 26.3965 12.1344C26.013 12.2395 25.6081 12.3506 25.3939 11.8375ZM17.0897 12.3864C16.1269 10.5746 13.407 6.83003 10.2298 6.34687C11.1524 7.39372 12.9738 9.89812 12.8775 11.5409C11.9147 11.4201 9.74836 11.2993 8.78556 11.7825C9.90883 12.2254 12.2998 13.546 12.8775 15.2854C13.5996 14.3191 15.453 12.3864 17.0897 12.3864Z" fill="black"/>
<path d="M28.1619 13.0748C30.5017 7.48594 37.9536 -2.80931 49.0439 0.720486L43.4286 4.77975L41.4983 4.25028L42.2002 5.30922L38.8661 7.95657C38.3982 7.72125 37.1113 7.25061 35.7075 7.25061C36.1755 7.72125 37.1815 8.80372 37.4623 9.36849L32.7244 13.6042C37.4038 11.1922 48.4823 8.76842 55.3611 18.3695L48.5174 18.0165L47.2891 16.4281V17.6635H43.0776L41.4983 15.1927L41.1473 17.6635H34.8301C40.153 19.0754 50.4828 24.7937 49.2193 36.3715L43.955 31.0768V29.4883L42.7266 30.1943L40.0945 27.7234V24.7231L38.3397 26.135C36 24.1348 30.8292 19.9932 28.8639 19.4284C29.9167 21.4875 32.0927 26.5233 32.3734 30.1943C32.081 30.7238 30.8292 31.818 28.1619 31.9592C29.2733 32.1357 31.7417 32.3828 32.7244 31.9592C32.9584 33.1946 33.3912 35.9832 33.2508 37.2539C32.6074 37.6657 30.6888 38.454 28.1619 38.3128V31.9592V13.0748Z" fill="#1B511A"/>
<path d="M66.4808 39.1363H62.4801C62.3641 39.1363 62.3061 39.0781 62.3061 38.9617L62.3757 14.3982C62.3757 14.3051 62.4221 14.2585 62.5149 14.2585H69.3682C71.5483 14.2585 73.2704 14.9278 74.5344 16.2662C75.81 17.593 76.4478 19.4028 76.4478 21.6957C76.4478 23.3717 76.1173 24.8323 75.4563 26.0777C74.7837 27.3114 73.914 28.2657 72.8471 28.9408C71.7803 29.6158 70.6206 29.9533 69.3682 29.9533H66.6547V38.9617C66.6547 39.0781 66.5967 39.1363 66.4808 39.1363ZM69.3682 18.5008L66.6547 18.5358V25.6237H69.3682C70.122 25.6237 70.7772 25.2629 71.3338 24.5413C71.8904 23.8081 72.1687 22.8595 72.1687 21.6957C72.1687 20.7646 71.9194 20.0022 71.4208 19.4087C70.9221 18.8035 70.238 18.5008 69.3682 18.5008Z" fill="#1B511A"/>
<path d="M77.387 38.9617L81.8052 14.3982C81.8284 14.3051 81.8864 14.2585 81.9792 14.2585H87.1453C87.2381 14.2585 87.296 14.3051 87.3192 14.3982L91.5635 38.9617C91.5751 39.0781 91.5287 39.1363 91.4243 39.1363H87.4758C87.3598 39.1363 87.296 39.0781 87.2844 38.9617L86.9018 36.343H82.0487L81.6661 38.9617C81.6545 39.0781 81.5965 39.1363 81.4921 39.1363H77.5262C77.4334 39.1363 77.387 39.0781 77.387 38.9617ZM84.7275 22.4813L84.5187 21.1545L84.3622 22.4813L82.7619 32.5197H86.1886L84.7275 22.4813Z" fill="#1B511A"/>
<path d="M105.444 39.1363H93.9291C93.8363 39.1363 93.7899 39.0781 93.7899 38.9617L93.8247 14.4331C93.8247 14.3167 93.8827 14.2585 93.9987 14.2585H97.9646C98.0805 14.2585 98.1385 14.3167 98.1385 14.4331L98.1037 34.7369H105.444C105.56 34.7369 105.618 34.7951 105.618 34.9114V38.9617C105.618 39.0781 105.56 39.1363 105.444 39.1363Z" fill="#1B511A"/>
<path d="M112.124 39.1363H108.088C107.995 39.1363 107.949 39.0781 107.949 38.9617L108.019 14.3982C108.019 14.3051 108.065 14.2585 108.158 14.2585H112.506C112.599 14.2585 112.68 14.3051 112.75 14.3982L116.003 19.1119L119.238 14.3982C119.307 14.3051 119.394 14.2585 119.499 14.2585H123.865C123.969 14.2585 124.021 14.3051 124.021 14.3982L124.091 38.9617C124.091 39.0781 124.045 39.1363 123.952 39.1363H119.916C119.823 39.1363 119.777 39.0781 119.777 38.9617L119.742 20.718L116.003 26.1649L112.298 20.718L112.263 38.9617C112.263 39.0781 112.216 39.1363 112.124 39.1363Z" fill="#1B511A"/>
<path d="M63.6709 11.3544H62.3621C62.332 11.3544 62.3169 11.3355 62.3169 11.2977L62.3395 3.33119C62.3395 3.30099 62.3546 3.28589 62.3846 3.28589H64.7202C65.1377 3.28589 65.5213 3.38781 65.871 3.59165C66.2208 3.79548 66.4991 4.06915 66.706 4.41265C66.9166 4.75615 67.0219 5.14494 67.0219 5.57904C67.0219 5.86214 66.9786 6.11882 66.8921 6.34908C66.8056 6.57934 66.7041 6.77374 66.5875 6.93227C66.4747 7.09081 66.3712 7.20783 66.2772 7.28332C66.6947 7.74761 66.9034 8.29306 66.9034 8.91966L66.9147 11.2977C66.9147 11.3355 66.8959 11.3544 66.8583 11.3544H65.5495C65.5194 11.3544 65.5043 11.343 65.5043 11.3204V8.91966C65.5043 8.64033 65.4066 8.39875 65.211 8.19492C65.0154 7.99108 64.7747 7.88916 64.4889 7.88916H63.7273L63.716 11.2977C63.716 11.3355 63.701 11.3544 63.6709 11.3544ZM64.7202 4.6731H63.7273V6.49629H64.7202C64.9571 6.49629 65.1677 6.40759 65.352 6.23018C65.5401 6.05276 65.6341 5.83572 65.6341 5.57904C65.6341 5.33368 65.5438 5.12229 65.3633 4.94488C65.1828 4.7637 64.9684 4.6731 64.7202 4.6731Z" fill="black"/>
<path d="M69.7693 11.4676C69.3518 11.4676 68.9757 11.3638 68.641 11.1562C68.3025 10.9486 68.0298 10.6692 67.823 10.3182C67.6199 9.96715 67.5183 9.57458 67.5183 9.14048V5.46579C67.5183 5.04303 67.6218 4.658 67.8286 4.31073C68.0317 3.95968 68.3044 3.68035 68.6466 3.47274C68.9889 3.26136 69.3631 3.15567 69.7693 3.15567C70.1942 3.15567 70.5779 3.25758 70.9201 3.46142C71.2624 3.66903 71.5331 3.94647 71.7325 4.29374C71.9356 4.64102 72.0371 5.0317 72.0371 5.46579V5.99803C72.0371 6.02823 72.0183 6.04333 71.9807 6.04333H70.6832C70.6531 6.04333 70.638 6.02823 70.638 5.99803V5.55639C70.638 5.26196 70.5553 5.01849 70.3898 4.82598C70.2243 4.63347 70.0175 4.53721 69.7693 4.53721C69.5474 4.53721 69.3499 4.62969 69.1769 4.81466C69.0039 4.99962 68.9174 5.21666 68.9174 5.46579V9.14048C68.9174 9.39339 69.002 9.61232 69.1713 9.79729C69.3405 9.97847 69.5398 10.0691 69.7693 10.0691C70.0175 10.0691 70.2243 9.98036 70.3898 9.80295C70.5553 9.62176 70.638 9.40094 70.638 9.14048V8.56861H69.8313C69.7899 8.56861 69.7693 8.54974 69.7693 8.51199V7.21538C69.7693 7.17763 69.7899 7.15876 69.8313 7.15876H71.992C72.0221 7.15876 72.0371 7.17763 72.0371 7.21538V9.14048C72.0371 9.57458 71.9356 9.96715 71.7325 10.3182C71.5256 10.6692 71.253 10.9486 70.9145 11.1562C70.576 11.3638 70.1942 11.4676 69.7693 11.4676Z" fill="black"/>
</svg>
