<svg width="96" height="45" viewBox="0 0 96 45" fill="none" xmlns="http://www.w3.org/2000/svg">
<mask id="mask0_2748_277" style="mask-type:luminance" maskUnits="userSpaceOnUse" x="0" y="0" width="95" height="38">
<path d="M94.928 0.648438H0.648415V37.7378H94.928V0.648438Z" fill="white"/>
</mask>
<g mask="url(#mask0_2748_277)">
<path d="M13.3816 35.1284C20.4139 35.1284 26.1148 29.483 26.1148 22.5191C26.1148 15.5552 20.4139 9.90979 13.3816 9.90979C6.34925 9.90979 0.648415 15.5552 0.648415 22.5191C0.648415 29.483 6.34925 35.1284 13.3816 35.1284Z" fill="#FFE7B9"/>
<path fill-rule="evenodd" clip-rule="evenodd" d="M27.7688 11.0164C27.5655 9.3463 27.118 7.49865 26.2228 5.99067C25.1398 4.16619 23.5887 3.11884 21.945 2.87953C20.3912 2.65307 18.781 3.1523 17.4382 4.34118C16.8671 3.98091 16.1649 3.75189 15.5192 3.60777C14.8916 3.46625 14.287 3.39933 13.8472 3.37875C13.7031 3.19348 13.5539 3.02106 13.397 2.85895C12.2137 1.62889 10.7192 0.802855 9.6954 0.648456C9.48447 0.617576 9.29154 1.0396 9.26324 1.27377C9.23495 1.50795 9.38415 1.7241 9.59251 1.75498C10.4928 1.8888 11.8253 2.39831 12.8723 3.48426C12.9906 3.60777 13.1064 3.73903 13.2169 3.87798C13.2427 4.01437 13.3275 4.12501 13.4407 4.17905C14.1327 5.18008 14.5854 6.55424 14.4696 8.41218C13.5565 8.25006 12.1546 8.01075 11.1514 7.87436C10.3874 7.76885 9.37386 7.64276 8.45809 8.03389C7.49861 8.44306 6.72947 9.37718 6.36934 11.1836C6.28188 11.6263 6.20471 12.0277 6.13012 12.4008C5.64393 14.9124 5.41757 16.0833 4.18027 18.6231C2.70115 21.6545 1.45098 26.7806 5.01371 30.9185C6.67803 32.8511 7.41115 34.2278 7.89732 35.1902C7.93591 35.2648 7.97193 35.3368 8.00794 35.4089C8.42208 36.2376 8.7462 36.886 9.52305 37.1922C9.93721 37.3544 10.3874 37.3699 10.8324 37.326C11.28 37.2823 11.7507 37.1717 12.2163 37.061C12.2729 37.0481 12.3295 37.0327 12.3861 37.0198C13.2812 36.8011 14.143 36.5901 14.9379 36.6827C15.3468 36.7291 15.7508 36.8732 16.1752 37.0507C16.2807 37.0944 16.3861 37.1408 16.4967 37.1871C16.8157 37.3234 17.1552 37.4701 17.4845 37.5731C17.9398 37.7147 18.426 37.797 18.9405 37.6941C19.4575 37.5911 19.9668 37.3055 20.471 36.7805C20.9443 36.2865 21.2325 35.9107 21.4382 35.5684C21.6029 35.2931 21.7135 35.0409 21.8163 34.8068C21.8395 34.7553 21.8601 34.7038 21.8832 34.6524C22.1276 34.1043 22.4852 33.3992 23.8665 31.8835C26.7321 28.7363 28.1006 24.4131 26.8557 21.1064C26.4647 20.072 26.017 19.0709 25.6029 18.1497C25.3971 17.689 25.199 17.249 25.0216 16.8347C24.538 15.7024 24.2189 14.776 24.1752 14.0374C24.2087 14.0374 24.2446 14.0348 24.2755 14.0324C24.8801 13.9963 25.4897 14.2021 26.017 14.4955C26.5443 14.7889 26.9611 15.1543 27.1771 15.3859L27.7405 16.001L27.8357 15.1388C27.9361 14.2253 27.9746 12.689 27.7714 11.0164H27.7688ZM14.4285 4.27685C14.7167 4.31287 15.0356 4.36176 15.3622 4.4364C15.8871 4.55476 16.4041 4.72202 16.8312 4.94849L16.8054 5.05913C16.4967 6.35351 16.3989 7.47291 16.4633 8.44306C16.044 8.43534 15.6324 8.44821 15.2388 8.48166C15.3468 6.74981 15.0099 5.36279 14.4285 4.27685ZM24.9238 18.5614C25.3302 19.4671 25.7572 20.4193 26.1379 21.4281C27.2158 24.2896 26.0659 28.2577 23.3186 31.2788C21.891 32.8459 21.4768 33.6283 21.1886 34.2767C21.1604 34.3384 21.1347 34.3977 21.1115 34.4516C21.0112 34.6832 20.9263 34.8737 20.7926 35.0976C20.6279 35.3703 20.3836 35.6972 19.9385 36.1603C19.5244 36.5901 19.1489 36.7856 18.8016 36.8551C18.4491 36.9247 18.089 36.8758 17.698 36.7522C17.4048 36.6596 17.1192 36.5386 16.8105 36.4048C16.6947 36.3559 16.5739 36.3044 16.4504 36.253C16.0105 36.0703 15.5321 35.8952 15.0201 35.8361C14.0941 35.7281 13.1141 35.9699 12.2498 36.1809C12.1829 36.1964 12.116 36.2144 12.0517 36.2298C11.5835 36.343 11.1565 36.4408 10.7655 36.4795C10.3745 36.518 10.0504 36.4949 9.78544 36.3919C9.29411 36.199 9.11404 35.8413 8.63559 34.8917C8.61758 34.8557 8.59701 34.8171 8.579 34.7784C8.07225 33.7749 7.30311 32.3338 5.5822 30.3317C2.36932 26.6031 3.44199 21.9478 4.86708 19.0221C6.15841 16.3741 6.40535 15.1003 6.8941 12.5707C6.96613 12.1975 7.0433 11.7987 7.13076 11.3638C7.44973 9.76833 8.07996 9.10698 8.74363 8.82649C9.45103 8.52541 10.2742 8.61032 11.0613 8.7184C12.2909 8.88825 14.143 9.21248 14.9173 9.35401L14.9713 9.36431L15.0253 9.35658C15.5037 9.29483 16.0312 9.28196 16.5713 9.29483C16.6356 9.63707 16.718 9.96132 16.826 10.2624C17.2967 11.5748 18.1559 12.442 19.1205 13.0081C20.5662 13.8547 22.2794 14.0374 23.4061 14.0529C23.4524 14.9999 23.8434 16.0755 24.3218 17.1975C24.5122 17.6427 24.7154 18.0982 24.9264 18.564L24.9238 18.5614ZM27.1231 14.246C26.9044 14.0735 26.6473 13.9011 26.3669 13.7441C25.7675 13.4096 25.019 13.142 24.2292 13.1883C23.3675 13.2397 21.1862 13.2578 19.4832 12.2619C18.6447 11.7704 17.9346 11.0421 17.5436 9.9536C17.1578 8.87795 17.0652 7.40601 17.5308 5.38338C17.5951 5.3139 17.662 5.24699 17.7288 5.18266C18.9559 3.99636 20.4375 3.51514 21.8421 3.71843C23.2466 3.92172 24.6022 4.81724 25.5721 6.45131C26.3823 7.81517 26.8042 9.52386 26.9996 11.1296C27.1411 12.3082 27.1591 13.4096 27.1206 14.2484L27.1231 14.246Z" fill="#4A3131"/>
<path d="M17.8314 35.0145C23.7402 35.0145 28.5303 30.2244 28.5303 24.3156C28.5303 18.4069 23.7402 13.6168 17.8314 13.6168C11.9226 13.6168 7.13256 18.4069 7.13256 24.3156C7.13256 30.2244 11.9226 35.0145 17.8314 35.0145Z" fill="#F59543"/>
<path d="M17.8314 31.3833C21.7349 31.3833 24.8991 28.219 24.8991 24.3156C24.8991 20.4121 21.7349 17.2479 17.8314 17.2479C13.928 17.2479 10.7637 20.4121 10.7637 24.3156C10.7637 28.219 13.928 31.3833 17.8314 31.3833Z" fill="#FFE7B9"/>
<path d="M18.9171 26.5566C18.0373 29.7064 18.0528 36.3302 26.6548 35.2725C27.1255 31.9967 26.539 25.1954 18.9171 26.5566Z" fill="#26713F"/>
<path d="M43.0924 33.5441H39.7611V31.8895C38.9354 33.0011 37.4923 33.7088 35.864 33.7088C32.8158 33.7088 30.6189 31.7248 30.6189 28.1324V20.451H33.927V27.659C33.927 29.7613 35.0846 30.8961 36.8337 30.8961C38.583 30.8961 39.7637 29.7613 39.7637 27.659V20.451H43.095V33.5441H43.0924Z" fill="#F59543"/>
<path d="M46.3541 20.451H49.6621V33.5441H46.3541V20.451Z" fill="#F59543"/>
<path d="M62.0892 26.313C62.0892 24.2105 60.9317 23.0758 59.1824 23.0758C57.4332 23.0758 56.2294 24.2105 56.2294 26.313V33.5441H52.9213V20.451H56.2294V22.0824C57.0809 20.9708 58.4982 20.2631 60.1754 20.2631C63.2236 20.2631 65.3973 22.2471 65.3973 25.8653V33.5467H62.0892V26.3156V26.313Z" fill="#F59543"/>
<path d="M74.1613 20.2374C77.4205 20.2374 79.6198 21.9384 80.3272 24.8693H76.7594C76.3812 23.7577 75.5066 23.05 74.1356 23.05C72.2937 23.05 71.0642 24.4447 71.0642 26.9975C71.0642 29.5502 72.2937 30.9219 74.1356 30.9219C75.5066 30.9219 76.3555 30.3068 76.7594 29.1256H80.3272C79.6173 31.9151 77.4205 33.7577 74.1613 33.7577C70.3825 33.7577 67.6892 31.1097 67.6892 26.9975C67.6892 22.8853 70.3825 20.2374 74.1613 20.2374Z" fill="#F59543"/>
<path d="M88.4791 33.7577C84.6746 33.7577 81.9118 31.1097 81.9118 26.9975C81.9118 22.8853 84.6051 20.2374 88.4791 20.2374C92.353 20.2374 94.928 22.8133 94.928 26.7119C94.928 27.1364 94.9047 27.5636 94.8328 27.9882H85.2636C85.4283 29.9259 86.753 31.0145 88.4045 31.0145C89.8218 31.0145 90.6012 30.3068 91.0283 29.4318H94.5961C93.8862 31.8431 91.7125 33.7577 88.4765 33.7577H88.4791ZM85.2893 25.7701H91.5042C91.4579 24.0434 90.0868 22.9574 88.3865 22.9574C86.8045 22.9574 85.5517 23.9739 85.2919 25.7701H85.2893Z" fill="#F59543"/>
<path d="M31.6633 17.7696H30.7039V13.9739H31.6633V14.5632C31.9025 14.172 32.3013 13.9198 32.8286 13.9198V14.926H32.5765C32.008 14.926 31.6659 15.1448 31.6659 15.8781V17.7696H31.6633Z" fill="#4A3131"/>
<path d="M34.9559 13.9122C35.5657 13.9122 35.9824 14.2003 36.2087 14.5143V13.9739H37.1734V17.7696H36.2087V17.2138C35.9824 17.5432 35.5503 17.8313 34.9483 17.8313C33.9887 17.8313 33.2222 17.0439 33.2222 15.8575C33.2222 14.6713 33.9887 13.9122 34.9559 13.9122ZM35.203 14.7561C34.6885 14.7561 34.2023 15.1396 34.2023 15.8601C34.2023 16.5807 34.6885 16.9898 35.203 16.9898C35.7174 16.9898 36.2087 16.5935 36.2087 15.873C36.2087 15.1525 35.7303 14.7561 35.203 14.7561Z" fill="#4A3131"/>
<path d="M39.7458 13.9122C40.6897 13.9122 41.3276 14.4063 41.5334 15.2554H40.4994C40.3887 14.9338 40.1368 14.7279 39.738 14.7279C39.2029 14.7279 38.848 15.132 38.848 15.873C38.848 16.6141 39.2029 17.0104 39.738 17.0104C40.1342 17.0104 40.3811 16.8329 40.4994 16.4907H41.5334C41.3276 17.2986 40.6897 17.8339 39.7458 17.8339C38.6498 17.8339 37.8678 17.0671 37.8678 15.8756C37.8678 14.6842 38.6498 13.9148 39.7458 13.9148V13.9122Z" fill="#4A3131"/>
<path d="M43.8692 13.9122C44.8133 13.9122 45.4512 14.4063 45.657 15.2554H44.6229C44.5123 14.9338 44.2602 14.7279 43.8615 14.7279C43.3264 14.7279 42.9714 15.132 42.9714 15.873C42.9714 16.6141 43.3264 17.0104 43.8615 17.0104C44.2576 17.0104 44.5046 16.8329 44.6229 16.4907H45.657C45.4512 17.2986 44.8133 17.8339 43.8692 17.8339C42.7733 17.8339 41.9914 17.0671 41.9914 15.8756C41.9914 14.6842 42.7733 13.9148 43.8692 13.9148V13.9122Z" fill="#4A3131"/>
<path d="M52.4197 17.8313C51.3239 17.8313 50.4956 17.0645 50.4956 15.873C50.4956 14.6816 51.3521 13.9122 52.4481 13.9122C53.5439 13.9122 54.4005 14.6738 54.4005 15.873C54.4005 17.0722 53.5233 17.8313 52.4197 17.8313ZM52.4197 16.9976C52.9265 16.9976 53.4127 16.627 53.4127 15.873C53.4127 15.119 52.9393 14.7485 52.4327 14.7485C51.9259 14.7485 51.4679 15.1113 51.4679 15.873C51.4679 16.6347 51.9052 16.9976 52.4197 16.9976Z" fill="#4A3131"/>
<path d="M57.7625 15.675C57.7625 15.0651 57.428 14.7357 56.9188 14.7357C56.4094 14.7357 56.0622 15.0651 56.0622 15.675V17.7722H55.1027V13.9765H56.0622V14.45C56.3091 14.1284 56.7207 13.9224 57.2068 13.9224C58.0892 13.9224 58.7194 14.4989 58.7194 15.5462V17.7722H57.7599V15.675H57.7625Z" fill="#4A3131"/>
<path d="M62.7478 13.9122C63.3446 13.9122 63.7741 14.1849 64.0005 14.5143V13.9739H64.9651V17.7979C64.9651 18.8246 64.3348 19.6404 63.0873 19.6404C62.0197 19.6404 61.2712 19.1051 61.176 18.2353H62.1278C62.2229 18.5776 62.5805 18.8041 63.059 18.8041C63.5863 18.8041 63.9979 18.5029 63.9979 17.7979V17.2086C63.7715 17.538 63.3394 17.8313 62.7452 17.8313C61.7805 17.8313 61.0114 17.0439 61.0114 15.8575C61.0114 14.6713 61.778 13.9122 62.7452 13.9122H62.7478ZM62.9947 14.7561C62.4802 14.7561 61.994 15.1396 61.994 15.8601C61.994 16.5807 62.4802 16.9898 62.9947 16.9898C63.5091 16.9898 64.0005 16.5935 64.0005 15.873C64.0005 15.1525 63.522 14.7561 62.9947 14.7561Z" fill="#4A3131"/>
<path d="M67.3934 13.9122C68.003 13.9122 68.4198 14.2003 68.6461 14.5143V13.9739H69.6108V17.7696H68.6461V17.2138C68.4198 17.5432 67.9876 17.8313 67.3858 17.8313C66.4262 17.8313 65.6597 17.0439 65.6597 15.8575C65.6597 14.6713 66.4262 13.9122 67.3934 13.9122ZM67.6403 14.7561C67.1259 14.7561 66.6397 15.1396 66.6397 15.8601C66.6397 16.5807 67.1259 16.9898 67.6403 16.9898C68.1549 16.9898 68.6461 16.5935 68.6461 15.873C68.6461 15.1525 68.1677 14.7561 67.6403 14.7561Z" fill="#4A3131"/>
<path d="M73.2096 15.675C73.2096 15.0651 72.8751 14.7357 72.3683 14.7357C71.8616 14.7357 71.5117 15.0651 71.5117 15.675V17.7722H70.5522V13.9765H71.5117V14.45C71.7587 14.1284 72.1703 13.9224 72.6565 13.9224C73.5388 13.9224 74.1689 14.4989 74.1689 15.5462V17.7722H73.2096V15.675Z" fill="#4A3131"/>
<path d="M76.5665 13.9122C77.1632 13.9122 77.5928 14.1849 77.8193 14.5143V13.9739H78.7838V17.7979C78.7838 18.8246 78.1536 19.6404 76.906 19.6404C75.8385 19.6404 75.09 19.1051 74.9948 18.2353H75.9465C76.0417 18.5776 76.3992 18.8041 76.8778 18.8041C77.4051 18.8041 77.8167 18.5029 77.8167 17.7979V17.2086C77.5902 17.538 77.1581 17.8313 76.5639 17.8313C75.5992 17.8313 74.8301 17.0439 74.8301 15.8575C74.8301 14.6713 75.5966 13.9122 76.5639 13.9122H76.5665ZM76.8134 14.7561C76.299 14.7561 75.8128 15.1396 75.8128 15.8601C75.8128 16.5807 76.299 16.9898 76.8134 16.9898C77.3279 16.9898 77.8193 16.5935 77.8193 15.873C77.8193 15.1525 77.3407 14.7561 76.8134 14.7561Z" fill="#4A3131"/>
<path d="M48.0775 17.8699C49.1799 17.8699 50.0737 16.9759 50.0737 15.873C50.0737 14.7701 49.1799 13.8761 48.0775 13.8761C46.9751 13.8761 46.0814 14.7701 46.0814 15.873C46.0814 16.9759 46.9751 17.8699 48.0775 17.8699Z" fill="#F59543"/>
</g>
</svg>
