<svg width="157" height="45" viewBox="0 0 157 45" fill="none" xmlns="http://www.w3.org/2000/svg">
<g clip-path="url(#clip0_4717_23501)">
<circle cx="20.2807" cy="21.919" r="2.19157" fill="#FED39A"/>
<path d="M61.8496 17.4818C61.7195 17.4818 61.6207 17.4454 61.5478 17.3751C61.4776 17.3049 61.4412 17.2034 61.4412 17.076V12.5885C61.4412 12.4584 61.4776 12.3595 61.5478 12.2867C61.6181 12.2139 61.7195 12.18 61.8496 12.18C61.9797 12.18 62.0785 12.2165 62.1462 12.2867C62.2138 12.3569 62.2476 12.4584 62.2476 12.5885V17.076C62.2476 17.206 62.2138 17.3049 62.1462 17.3751C62.0785 17.4454 61.9797 17.4818 61.8496 17.4818ZM61.8002 14.1962C61.8132 13.8007 61.9146 13.4469 62.1045 13.1348C62.2944 12.8226 62.5468 12.5755 62.8616 12.3934C63.1763 12.2139 63.5197 12.1228 63.8943 12.1228C64.2247 12.1228 64.4745 12.1722 64.6462 12.2685C64.8179 12.3647 64.8803 12.4974 64.8361 12.6665C64.8179 12.7576 64.7762 12.8226 64.7138 12.8616C64.6514 12.9006 64.5811 12.9188 64.5005 12.9188C64.4198 12.9188 64.3262 12.9136 64.2247 12.9006C63.8423 12.8564 63.5067 12.8798 63.2128 12.9735C62.9188 13.0671 62.6847 13.2206 62.5104 13.4339C62.3361 13.6473 62.2476 13.9022 62.2476 14.1988H61.8028L61.8002 14.1962Z" fill="#FED39A"/>
<path d="M68.2675 17.5312C67.7758 17.5312 67.3362 17.4142 66.9486 17.1774C66.5609 16.9407 66.254 16.6207 66.0276 16.2123C65.8013 15.8039 65.6895 15.346 65.6895 14.8361C65.6895 14.3262 65.8065 13.858 66.0433 13.4496C66.28 13.0437 66.6 12.7211 67.0084 12.4844C67.4142 12.2477 67.8721 12.1306 68.3742 12.1306C68.8762 12.1306 69.3419 12.2477 69.7451 12.4844C70.1484 12.7211 70.4683 13.0411 70.7051 13.4496C70.9418 13.858 71.0615 14.3184 71.0693 14.8361L70.7389 15C70.7389 15.4787 70.6296 15.9079 70.4137 16.2903C70.1978 16.6728 69.9038 16.9745 69.5318 17.1957C69.1598 17.4168 68.7384 17.5312 68.2675 17.5312ZM68.382 16.7924C68.7436 16.7924 69.0661 16.7066 69.3471 16.5349C69.6281 16.3632 69.8518 16.1291 70.0157 15.8325C70.1796 15.5359 70.2628 15.2029 70.2628 14.8335C70.2628 14.4641 70.1796 14.1233 70.0157 13.8294C69.8518 13.5354 69.6281 13.3013 69.3471 13.127C69.0661 12.9527 68.7436 12.8642 68.382 12.8642C68.0204 12.8642 67.7056 12.9527 67.4168 13.127C67.1281 13.3013 66.9017 13.5354 66.7326 13.8294C66.5635 14.1233 66.4803 14.4589 66.4803 14.8335C66.4803 15.2081 66.5635 15.5359 66.7326 15.8325C66.9017 16.1291 67.1281 16.3632 67.4168 16.5349C67.703 16.7066 68.0256 16.7924 68.382 16.7924ZM70.6608 17.4818C70.5386 17.4818 70.4371 17.4454 70.3565 17.3699C70.2758 17.2945 70.2342 17.1983 70.2342 17.0734V15.4735L70.4189 14.6306L71.0693 14.8335V17.0734C71.0693 17.1957 71.0302 17.2945 70.9522 17.3699C70.8742 17.4454 70.7779 17.4818 70.6608 17.4818Z" fill="#FED39A"/>
<path d="M74.8986 17.5312C74.3887 17.5312 73.9335 17.4142 73.5328 17.1774C73.1322 16.9407 72.8174 16.6207 72.5885 16.2123C72.3596 15.8065 72.2451 15.346 72.2451 14.8361C72.2451 14.3262 72.357 13.858 72.5807 13.4496C72.8044 13.0437 73.1062 12.7211 73.4912 12.4844C73.8762 12.2477 74.3211 12.1306 74.8232 12.1306C75.2108 12.1306 75.5698 12.2061 75.9002 12.3595C76.2306 12.5104 76.5219 12.7394 76.7717 13.0437C76.8497 13.1348 76.8757 13.2258 76.8549 13.3195C76.8315 13.4131 76.7717 13.4964 76.6754 13.5666C76.5974 13.6186 76.5115 13.6369 76.4179 13.6186C76.3242 13.603 76.2384 13.5536 76.1603 13.4678C75.8039 13.0671 75.3591 12.8668 74.8232 12.8668C74.4668 12.8668 74.1546 12.9501 73.8866 13.1192C73.6187 13.2883 73.4106 13.5172 73.2623 13.8112C73.114 14.1051 73.0386 14.4459 73.0386 14.8335C73.0386 15.2211 73.1166 15.5437 73.2753 15.8377C73.434 16.1317 73.6525 16.3658 73.9335 16.5349C74.2144 16.7066 74.537 16.7924 74.8986 16.7924C75.1431 16.7924 75.3643 16.7612 75.562 16.6962C75.7597 16.6311 75.9366 16.5323 76.0901 16.3944C76.1811 16.3242 76.2722 16.2851 76.3606 16.2773C76.4517 16.2721 76.5349 16.2955 76.613 16.3554C76.6962 16.4334 76.7456 16.5193 76.7586 16.6181C76.7717 16.7144 76.7404 16.8028 76.6624 16.8809C76.1915 17.3127 75.6036 17.5312 74.8986 17.5312Z" fill="#FED39A"/>
<path d="M80.6867 17.5312C80.1768 17.5312 79.7216 17.4142 79.3209 17.1774C78.9203 16.9407 78.6055 16.6207 78.3766 16.2123C78.1477 15.8065 78.0332 15.346 78.0332 14.8361C78.0332 14.3262 78.1451 13.858 78.3688 13.4496C78.5925 13.0437 78.8943 12.7211 79.2793 12.4844C79.6643 12.2477 80.1092 12.1306 80.6112 12.1306C80.9989 12.1306 81.3579 12.2061 81.6883 12.3595C82.0186 12.5104 82.31 12.7394 82.5597 13.0437C82.6378 13.1348 82.6638 13.2258 82.643 13.3195C82.6196 13.4131 82.5597 13.4964 82.4635 13.5666C82.3854 13.6186 82.2996 13.6369 82.2059 13.6186C82.1123 13.603 82.0264 13.5536 81.9484 13.4678C81.592 13.0671 81.1471 12.8668 80.6112 12.8668C80.2548 12.8668 79.9427 12.9501 79.6747 13.1192C79.4068 13.2883 79.1987 13.5172 79.0504 13.8112C78.9021 14.1051 78.8267 14.4459 78.8267 14.8335C78.8267 15.2211 78.9047 15.5437 79.0634 15.8377C79.2221 16.1317 79.4406 16.3658 79.7216 16.5349C80.0025 16.7066 80.3251 16.7924 80.6867 16.7924C80.9312 16.7924 81.1524 16.7612 81.3501 16.6962C81.5478 16.6311 81.7247 16.5323 81.8782 16.3944C81.9692 16.3242 82.0603 16.2851 82.1487 16.2773C82.2398 16.2721 82.323 16.2955 82.4011 16.3554C82.4843 16.4334 82.5337 16.5193 82.5467 16.6181C82.5597 16.7144 82.5285 16.8028 82.4505 16.8809C81.9796 17.3127 81.3917 17.5312 80.6867 17.5312Z" fill="#FED39A"/>
<path d="M86.5115 17.5312C85.9886 17.5312 85.5256 17.4142 85.1197 17.1826C84.7165 16.9485 84.3965 16.6311 84.165 16.2227C83.9335 15.8143 83.8164 15.3538 83.8164 14.8361C83.8164 14.3184 83.9335 13.8476 84.165 13.4391C84.3965 13.0307 84.7165 12.7107 85.1197 12.4792C85.523 12.2477 85.986 12.1306 86.5115 12.1306C87.037 12.1306 87.4871 12.2477 87.8877 12.4792C88.2883 12.7107 88.6057 13.0307 88.8372 13.4391C89.0687 13.845 89.1884 14.3106 89.1962 14.8361C89.1962 15.3538 89.0792 15.8143 88.8476 16.2227C88.6161 16.6285 88.2961 16.9485 87.8929 17.1826C87.4897 17.4142 87.0292 17.5312 86.5115 17.5312ZM86.5115 16.7924C86.8731 16.7924 87.1957 16.7066 87.4819 16.5349C87.7654 16.3632 87.9891 16.1317 88.1504 15.8377C88.3117 15.5437 88.3924 15.2081 88.3924 14.8335C88.3924 14.4589 88.3117 14.1233 88.1504 13.8242C87.9891 13.5276 87.7654 13.2935 87.4819 13.1218C87.1983 12.9501 86.8731 12.8642 86.5115 12.8642C86.1499 12.8642 85.8247 12.9501 85.536 13.1218C85.2472 13.2935 85.0209 13.5276 84.857 13.8242C84.6931 14.1207 84.6098 14.4589 84.6098 14.8335C84.6098 15.2081 84.6931 15.5437 84.857 15.8377C85.0209 16.1317 85.2472 16.3658 85.536 16.5349C85.8247 16.704 86.1473 16.7924 86.5115 16.7924Z" fill="#FED39A"/>
<path d="M93.0645 17.5312C92.5416 17.5312 92.0785 17.4142 91.6727 17.1826C91.2695 16.9485 90.9495 16.6311 90.718 16.2227C90.4864 15.8143 90.3694 15.3538 90.3694 14.8361C90.3694 14.3184 90.4864 13.8476 90.718 13.4391C90.9495 13.0307 91.2695 12.7107 91.6727 12.4792C92.0759 12.2477 92.539 12.1306 93.0645 12.1306C93.59 12.1306 94.04 12.2477 94.4407 12.4792C94.8413 12.7107 95.1587 13.0307 95.3902 13.4391C95.6217 13.845 95.7414 14.3106 95.7492 14.8361C95.7492 15.3538 95.6321 15.8143 95.4006 16.2227C95.1691 16.6285 94.8491 16.9485 94.4459 17.1826C94.0426 17.4142 93.5822 17.5312 93.0645 17.5312ZM93.0645 16.7924C93.4261 16.7924 93.7487 16.7066 94.0348 16.5349C94.3184 16.3632 94.5421 16.1317 94.7034 15.8377C94.8647 15.5437 94.9453 15.2081 94.9453 14.8335C94.9453 14.4589 94.8647 14.1233 94.7034 13.8242C94.5421 13.5276 94.3184 13.2935 94.0348 13.1218C93.7513 12.9501 93.4261 12.8642 93.0645 12.8642C92.7029 12.8642 92.3777 12.9501 92.0889 13.1218C91.8002 13.2935 91.5739 13.5276 91.41 13.8242C91.2461 14.1207 91.1628 14.4589 91.1628 14.8335C91.1628 15.2081 91.2461 15.5437 91.41 15.8377C91.5739 16.1317 91.8002 16.3658 92.0889 16.5349C92.3777 16.704 92.7003 16.7924 93.0645 16.7924Z" fill="#FED39A"/>
<path d="M97.6223 17.4818C97.4922 17.4818 97.3908 17.4453 97.3179 17.3699C97.2451 17.2945 97.2061 17.1982 97.2061 17.0733V12.5936C97.2061 12.4635 97.2425 12.3621 97.3179 12.2892C97.3934 12.2164 97.4948 12.1774 97.6223 12.1774C97.7498 12.1774 97.8434 12.2138 97.9189 12.2892C97.9943 12.3647 98.0307 12.4661 98.0307 12.5936V17.0733C98.0307 17.1956 97.9943 17.2945 97.9189 17.3699C97.8434 17.4453 97.7446 17.4818 97.6223 17.4818ZM101.733 17.4818C101.61 17.4818 101.509 17.4427 101.431 17.3647C101.353 17.2866 101.314 17.1904 101.314 17.0733V14.6019C101.314 14.2065 101.241 13.8865 101.095 13.6368C100.95 13.3871 100.752 13.1998 100.5 13.0749C100.247 12.95 99.961 12.885 99.6358 12.885C99.3314 12.885 99.0583 12.9448 98.8164 13.0645C98.5744 13.1842 98.3819 13.3454 98.2388 13.5484C98.0958 13.7513 98.0255 13.9854 98.0255 14.2507H97.4636C97.4766 13.8449 97.5859 13.4807 97.7888 13.1607C97.9917 12.8408 98.2648 12.5884 98.6082 12.3985C98.9516 12.2112 99.3314 12.1176 99.7529 12.1176C100.206 12.1176 100.611 12.2138 100.97 12.4037C101.329 12.5936 101.613 12.8746 101.824 13.2414C102.034 13.6108 102.138 14.0634 102.138 14.5993V17.0707C102.138 17.1878 102.099 17.284 102.021 17.3621C101.943 17.4401 101.847 17.4792 101.73 17.4792L101.733 17.4818Z" fill="#FED39A"/>
<path d="M108.925 17.5312C108.421 17.5312 107.976 17.4167 107.588 17.1878C107.201 16.9589 106.896 16.6389 106.678 16.2331C106.459 15.8272 106.347 15.3616 106.347 14.8361C106.347 14.3106 106.464 13.8371 106.696 13.4313C106.928 13.0229 107.248 12.7055 107.651 12.4766C108.054 12.2476 108.517 12.1332 109.043 12.1332C109.568 12.1332 110.021 12.2476 110.424 12.4766C110.827 12.7055 111.145 13.0229 111.373 13.4313C111.602 13.8371 111.722 14.308 111.727 14.8361L111.243 15C111.243 15.4917 111.145 15.9261 110.947 16.3085C110.749 16.6909 110.476 16.9901 110.127 17.206C109.779 17.4219 109.378 17.5312 108.925 17.5312ZM109.043 19.6046C108.551 19.6046 108.111 19.5109 107.718 19.3236C107.328 19.1363 107 18.8736 106.735 18.538C106.665 18.4547 106.634 18.3611 106.647 18.2622C106.66 18.1608 106.712 18.0827 106.803 18.0255C106.899 17.9604 107.003 17.937 107.112 17.9578C107.222 17.9761 107.31 18.0333 107.375 18.1217C107.557 18.3481 107.789 18.5276 108.072 18.6654C108.356 18.8033 108.686 18.8684 109.061 18.8684C109.404 18.8684 109.716 18.7851 110 18.6212C110.283 18.4573 110.51 18.218 110.674 17.9084C110.838 17.5988 110.921 17.2294 110.921 16.8028V15.3668L111.212 14.7086L111.727 14.8335V16.8496C111.727 17.3673 111.61 17.833 111.379 18.2518C111.147 18.668 110.83 18.9984 110.429 19.2404C110.028 19.4823 109.565 19.6046 109.043 19.6046ZM109.043 16.7924C109.412 16.7924 109.735 16.7091 110.018 16.54C110.299 16.371 110.52 16.142 110.681 15.8481C110.843 15.5541 110.923 15.2159 110.923 14.8361C110.923 14.4563 110.843 14.1155 110.681 13.8189C110.52 13.5224 110.299 13.2882 110.018 13.1217C109.737 12.9526 109.412 12.8694 109.043 12.8694C108.673 12.8694 108.348 12.9526 108.064 13.1217C107.781 13.2908 107.554 13.5224 107.391 13.8189C107.227 14.1155 107.143 14.4563 107.143 14.8361C107.143 15.2159 107.227 15.5541 107.391 15.8481C107.554 16.142 107.781 16.3736 108.064 16.54C108.348 16.7091 108.676 16.7924 109.043 16.7924Z" fill="#FED39A"/>
<path d="M115.479 17.5312C114.987 17.5312 114.547 17.4142 114.16 17.1774C113.772 16.9407 113.465 16.6207 113.239 16.2123C113.013 15.8039 112.901 15.346 112.901 14.8361C112.901 14.3262 113.018 13.858 113.254 13.4496C113.491 13.0437 113.811 12.7211 114.22 12.4844C114.625 12.2477 115.083 12.1306 115.585 12.1306C116.087 12.1306 116.553 12.2477 116.956 12.4844C117.36 12.7211 117.68 13.0411 117.916 13.4496C118.153 13.858 118.273 14.3184 118.28 14.8361L117.95 15C117.95 15.4787 117.841 15.9079 117.625 16.2903C117.409 16.6728 117.115 16.9745 116.743 17.1957C116.371 17.4168 115.95 17.5312 115.479 17.5312ZM115.596 16.7924C115.957 16.7924 116.28 16.7066 116.561 16.5349C116.842 16.3632 117.066 16.1291 117.229 15.8325C117.393 15.5359 117.477 15.2029 117.477 14.8335C117.477 14.4641 117.393 14.1233 117.229 13.8294C117.066 13.5354 116.842 13.3013 116.561 13.127C116.28 12.9527 115.957 12.8642 115.596 12.8642C115.234 12.8642 114.919 12.9527 114.631 13.127C114.342 13.3013 114.116 13.5354 113.946 13.8294C113.777 14.1233 113.694 14.4589 113.694 14.8335C113.694 15.2081 113.777 15.5359 113.946 15.8325C114.116 16.1291 114.342 16.3632 114.631 16.5349C114.917 16.7066 115.239 16.7924 115.596 16.7924ZM117.875 17.4818C117.752 17.4818 117.651 17.4454 117.57 17.3699C117.49 17.2945 117.448 17.1983 117.448 17.0734V15.4735L117.633 14.6306L118.283 14.8335V17.0734C118.283 17.1957 118.244 17.2945 118.166 17.3699C118.088 17.4454 117.992 17.4818 117.875 17.4818Z" fill="#FED39A"/>
<path d="M120.151 17.4818C120.021 17.4818 119.919 17.4453 119.846 17.3699C119.774 17.2945 119.735 17.1982 119.735 17.0733V12.5936C119.735 12.4635 119.771 12.3621 119.846 12.2892C119.922 12.2164 120.023 12.1774 120.151 12.1774C120.278 12.1774 120.372 12.2138 120.447 12.2892C120.523 12.3647 120.559 12.4661 120.559 12.5936V17.0733C120.559 17.1956 120.523 17.2945 120.447 17.3699C120.372 17.4453 120.273 17.4818 120.151 17.4818ZM124.264 17.4818C124.141 17.4818 124.04 17.4427 123.962 17.3647C123.884 17.2866 123.845 17.1904 123.845 17.0733V14.6019C123.845 14.2065 123.772 13.8865 123.626 13.6368C123.481 13.3871 123.283 13.1998 123.031 13.0749C122.778 12.95 122.492 12.885 122.167 12.885C121.863 12.885 121.589 12.9448 121.348 13.0645C121.106 13.1842 120.913 13.3454 120.77 13.5484C120.627 13.7513 120.557 13.9854 120.557 14.2507H119.995C120.008 13.8449 120.117 13.4807 120.32 13.1607C120.523 12.8408 120.796 12.5884 121.139 12.3985C121.483 12.2112 121.863 12.1176 122.284 12.1176C122.737 12.1176 123.143 12.2138 123.502 12.4037C123.861 12.5936 124.144 12.8746 124.355 13.2414C124.566 13.6108 124.67 14.0634 124.67 14.5993V17.0707C124.67 17.1878 124.631 17.284 124.553 17.3621C124.474 17.4401 124.378 17.4792 124.261 17.4792L124.264 17.4818Z" fill="#FED39A"/>
<path d="M128.616 17.5312C128.111 17.5312 127.666 17.4167 127.279 17.1878C126.891 16.9589 126.587 16.6389 126.368 16.2331C126.15 15.8272 126.038 15.3616 126.038 14.8361C126.038 14.3106 126.155 13.8371 126.386 13.4313C126.621 13.0229 126.938 12.7055 127.341 12.4766C127.744 12.2476 128.21 12.1332 128.733 12.1332C129.256 12.1332 129.711 12.2476 130.114 12.4766C130.518 12.7055 130.835 13.0229 131.064 13.4313C131.293 13.8371 131.41 14.308 131.418 14.8361L130.934 15C130.934 15.4917 130.835 15.9261 130.637 16.3085C130.44 16.6909 130.166 16.9901 129.818 17.206C129.469 17.4219 129.069 17.5312 128.616 17.5312ZM128.73 19.6046C128.239 19.6046 127.799 19.5109 127.406 19.3236C127.013 19.1363 126.688 18.8736 126.423 18.538C126.353 18.4547 126.321 18.3611 126.334 18.2622C126.347 18.1634 126.399 18.0827 126.491 18.0255C126.587 17.9604 126.691 17.937 126.8 17.9578C126.909 17.9761 126.998 18.0333 127.063 18.1217C127.245 18.3481 127.476 18.5276 127.76 18.6654C128.044 18.8007 128.374 18.8684 128.749 18.8684C129.092 18.8684 129.404 18.7851 129.688 18.6212C129.971 18.4573 130.198 18.218 130.361 17.9084C130.525 17.5988 130.609 17.2294 130.609 16.8028V15.3668L130.9 14.7086L131.415 14.8335V16.8496C131.415 17.3673 131.298 17.833 131.066 18.2518C130.832 18.668 130.518 18.9984 130.117 19.2404C129.716 19.4823 129.253 19.6046 128.73 19.6046ZM128.73 16.7924C129.1 16.7924 129.422 16.7091 129.706 16.54C129.987 16.371 130.208 16.142 130.369 15.8481C130.531 15.5541 130.611 15.2159 130.611 14.8361C130.611 14.4563 130.531 14.1155 130.369 13.8189C130.208 13.5224 129.987 13.2882 129.706 13.1217C129.425 12.9526 129.1 12.8694 128.73 12.8694C128.361 12.8694 128.036 12.9526 127.752 13.1217C127.469 13.2908 127.242 13.5224 127.078 13.8189C126.915 14.1155 126.831 14.4563 126.831 14.8361C126.831 15.2159 126.915 15.5541 127.078 15.8481C127.242 16.142 127.469 16.3736 127.752 16.54C128.036 16.7065 128.364 16.7924 128.73 16.7924Z" fill="#FED39A"/>
<path d="M122.7 37.5885C125.383 37.5885 127.557 35.414 127.557 32.7316C127.557 30.0492 125.383 27.8746 122.7 27.8746C120.018 27.8746 117.844 30.0492 117.844 32.7316C117.844 35.414 120.018 37.5885 122.7 37.5885Z" fill="#7A2505"/>
<path d="M136.86 37.5885C139.543 37.5885 141.717 35.414 141.717 32.7316C141.717 30.0492 139.543 27.8746 136.86 27.8746C134.178 27.8746 132.003 30.0492 132.003 32.7316C132.003 35.414 134.178 37.5885 136.86 37.5885Z" fill="#7A2505"/>
<path d="M62.5026 38.4704C62.1956 38.4704 61.9355 38.3663 61.7274 38.1556C61.5167 37.9449 61.4126 37.6873 61.4126 37.3804V23.179C61.4126 22.8564 61.5167 22.5963 61.7274 22.3934C61.9381 22.1904 62.1956 22.089 62.5026 22.089H66.2799C67.3283 22.089 68.2596 22.3101 69.0713 22.7498C69.8829 23.1894 70.5151 23.7955 70.9703 24.5656C71.4256 25.3356 71.6519 26.2305 71.6519 27.2503C71.6519 28.2024 71.4256 29.0479 70.9703 29.7893C70.5151 30.5307 69.8829 31.1108 69.0713 31.5297C68.2596 31.9485 67.3309 32.1592 66.2799 32.1592H63.5952V37.383C63.5952 37.6899 63.4938 37.9501 63.2908 38.1582C63.0879 38.3689 62.8252 38.473 62.5052 38.473L62.5026 38.4704ZM63.5926 30.1405H66.2773C66.9199 30.1405 67.487 30.0182 67.9761 29.7737C68.4651 29.5292 68.8502 29.1858 69.1311 28.7461C69.4095 28.3065 69.55 27.807 69.55 27.2451C69.55 26.6285 69.4095 26.0848 69.1311 25.6088C68.8502 25.1327 68.4677 24.7633 67.9761 24.4979C67.487 24.2326 66.9199 24.0999 66.2773 24.0999H63.5926V30.1405ZM71.2097 38.4704C71.0146 38.4704 70.8351 38.4287 70.6738 38.3455C70.5125 38.2622 70.3772 38.1296 70.2654 37.9475L66.488 31.8627L68.6056 31.2539L72.0474 36.7924C72.2997 37.1982 72.3335 37.5781 72.1514 37.9371C71.9693 38.2935 71.6545 38.473 71.2071 38.473L71.2097 38.4704Z" fill="#FED39A"/>
<path d="M79.8518 38.5536C78.6915 38.5536 77.6587 38.3065 76.7586 37.8096C75.8559 37.3127 75.1509 36.6285 74.641 35.7544C74.1312 34.8803 73.8762 33.8762 73.8762 32.7445C73.8762 31.6129 74.1182 30.5879 74.5994 29.7138C75.0807 28.8398 75.7493 28.1556 76.6025 27.6587C77.4558 27.1618 78.434 26.9147 79.5396 26.9147C80.6452 26.9147 81.5661 27.1566 82.3518 27.6379C83.1348 28.1217 83.7331 28.7851 84.1442 29.6306C84.5578 30.4761 84.7633 31.4516 84.7633 32.5572C84.7633 32.8226 84.6723 33.0437 84.4902 33.218C84.3081 33.3923 84.0765 33.4807 83.7982 33.4807H75.3434V31.8028H83.7357L82.8747 32.3907C82.8617 31.6909 82.7212 31.0666 82.4558 30.5125C82.1905 29.961 81.8133 29.5239 81.3242 29.2014C80.8351 28.8788 80.2394 28.7201 79.5422 28.7201C78.7461 28.7201 78.062 28.8944 77.4974 29.2456C76.9303 29.5968 76.5011 30.0754 76.2071 30.6816C75.9132 31.2903 75.7675 31.9797 75.7675 32.7471C75.7675 33.5146 75.9418 34.2014 76.293 34.8023C76.6416 35.4032 77.1254 35.8793 77.7394 36.2279C78.3533 36.5791 79.0609 36.7534 79.857 36.7534C80.2914 36.7534 80.7337 36.6727 81.1889 36.5114C81.6442 36.3502 82.011 36.1655 82.2893 35.9547C82.5001 35.8013 82.7264 35.7206 82.9709 35.7128C83.2155 35.705 83.4288 35.7804 83.6109 35.9339C83.8476 36.1446 83.9751 36.3736 83.9881 36.6259C84.0011 36.8783 83.8892 37.0942 83.6525 37.2763C83.1764 37.6535 82.5859 37.9631 81.8809 38.1998C81.1733 38.4365 80.4995 38.5562 79.857 38.5562L79.8518 38.5536Z" fill="#FED39A"/>
<path d="M92.6899 38.5536C91.5998 38.5536 90.6165 38.2986 89.7424 37.7887C88.8683 37.2789 88.1763 36.5817 87.6664 35.7024C87.1566 34.8205 86.9016 33.8293 86.9016 32.7237C86.9016 31.6181 87.1357 30.6295 87.604 29.7554C88.0723 28.8814 88.7122 28.1894 89.5239 27.6795C90.3355 27.1696 91.2513 26.9147 92.271 26.9147C93.0957 26.9147 93.8579 27.0864 94.5577 27.4297C95.2575 27.7731 95.8454 28.2362 96.3189 28.8241V23.1608C96.3189 22.8382 96.4203 22.5806 96.6233 22.3855C96.8262 22.1904 97.0811 22.0916 97.3881 22.0916C97.6951 22.0916 97.9682 22.1904 98.1633 22.3855C98.3584 22.5806 98.4573 22.8408 98.4573 23.1608V32.7263C98.4573 33.8319 98.2023 34.8231 97.6925 35.705C97.1826 36.5869 96.4932 37.2815 95.6269 37.7913C94.7606 38.3012 93.7799 38.5562 92.6899 38.5562V38.5536ZM92.6899 36.6649C93.4027 36.6649 94.04 36.4932 94.5993 36.1498C95.1586 35.8064 95.5983 35.3356 95.9209 34.7346C96.2434 34.1337 96.4021 33.4625 96.4021 32.7211C96.4021 31.9797 96.2408 31.2955 95.9209 30.7076C95.5983 30.1196 95.1586 29.6566 94.5993 29.3132C94.04 28.9698 93.4027 28.7981 92.6899 28.7981C91.9771 28.7981 91.3579 28.9698 90.7908 29.3132C90.2237 29.6566 89.7762 30.1223 89.4484 30.7076C89.1207 31.2955 88.9542 31.9667 88.9542 32.7211C88.9542 33.4755 89.1181 34.1337 89.4484 34.7346C89.7762 35.3356 90.2237 35.809 90.7908 36.1498C91.3579 36.4932 91.9901 36.6649 92.6899 36.6649Z" fill="#FED39A"/>
<path d="M104.878 38.4703C104.654 38.4703 104.448 38.4053 104.259 38.27C104.069 38.1373 103.941 37.9734 103.871 37.7757L100.765 28.4625C100.653 28.0281 100.656 27.6769 100.775 27.4037C100.895 27.1306 101.155 26.9953 101.561 26.9953C101.826 26.9953 102.047 27.0681 102.222 27.2164C102.396 27.3621 102.539 27.6118 102.651 27.9604L105.294 36.2252H104.56L107.058 27.7913C107.128 27.5546 107.248 27.3621 107.414 27.2138C107.581 27.0681 107.812 26.9927 108.106 26.9927C108.4 26.9927 108.613 27.0655 108.788 27.2138C108.962 27.3595 109.076 27.5546 109.134 27.7913L111.168 35.7206H110.853L113.33 27.9578C113.525 27.3153 113.889 26.9927 114.42 26.9927C114.81 26.9927 115.078 27.128 115.216 27.4011C115.356 27.6743 115.349 28.0281 115.195 28.4599L112.089 37.7731C112.034 37.9682 111.915 38.1347 111.733 38.2674C111.55 38.4001 111.34 38.4677 111.103 38.4677C110.879 38.4677 110.669 38.4027 110.473 38.2674C110.278 38.1347 110.151 37.9708 110.096 37.7731L107.934 29.7814H108.145L105.879 37.7731C105.822 37.9682 105.7 38.1347 105.512 38.2674C105.323 38.4001 105.109 38.4677 104.872 38.4677L104.878 38.4703Z" fill="#FED39A"/>
<path d="M122.711 38.5536C121.579 38.5536 120.578 38.3065 119.711 37.8096C118.845 37.3127 118.161 36.6285 117.667 35.7544C117.17 34.8803 116.923 33.8762 116.923 32.7445C116.923 31.6129 117.17 30.5879 117.667 29.7138C118.163 28.8398 118.845 28.1556 119.711 27.6587C120.578 27.1618 121.579 26.9147 122.711 26.9147C123.842 26.9147 124.823 27.1618 125.69 27.6587C126.556 28.1556 127.237 28.8398 127.734 29.7138C128.231 30.5879 128.478 31.5999 128.478 32.7445C128.478 33.8892 128.234 34.8803 127.745 35.7544C127.256 36.6285 126.577 37.3153 125.71 37.8096C124.844 38.3065 123.842 38.5536 122.711 38.5536ZM122.711 36.6649C123.437 36.6649 124.082 36.4958 124.641 36.1603C125.2 35.8247 125.637 35.3616 125.952 34.7763C126.267 34.1909 126.423 33.512 126.423 32.7419C126.423 31.9719 126.267 31.2903 125.952 30.6972C125.637 30.1041 125.2 29.6384 124.641 29.3028C124.082 28.9672 123.439 28.7981 122.711 28.7981C121.982 28.7981 121.34 28.9672 120.781 29.3028C120.221 29.6384 119.782 30.1041 119.459 30.6972C119.136 31.2929 118.978 31.9745 118.978 32.7419C118.978 33.5094 119.139 34.1883 119.459 34.7763C119.782 35.3642 120.221 35.8247 120.781 36.1603C121.34 36.4958 121.982 36.6649 122.711 36.6649Z" fill="#FED39A"/>
<path d="M122.711 38.7279C121.553 38.7279 120.515 38.4703 119.623 37.9604C118.731 37.4506 118.02 36.7378 117.513 35.8403C117.003 34.9454 116.746 33.9022 116.746 32.7445C116.746 31.5869 117.003 30.5229 117.513 29.628C118.023 28.7305 118.733 28.0177 119.623 27.5078C120.513 26.9979 121.551 26.7404 122.711 26.7404C123.871 26.7404 124.886 26.9979 125.775 27.5078C126.665 28.0177 127.375 28.7305 127.885 29.628C128.395 30.5255 128.652 31.5739 128.652 32.7445C128.652 33.9152 128.398 34.9428 127.895 35.8403C127.393 36.7378 126.686 37.4532 125.796 37.963C124.906 38.4729 123.868 38.7305 122.708 38.7305L122.711 38.7279ZM122.711 27.0864C121.613 27.0864 120.635 27.3283 119.797 27.807C118.962 28.2856 118.296 28.9542 117.817 29.7971C117.339 30.6399 117.097 31.6311 117.097 32.7419C117.097 33.8527 117.339 34.8231 117.817 35.666C118.296 36.5088 118.962 37.1774 119.797 37.6561C120.635 38.1347 121.613 38.3767 122.711 38.3767C123.809 38.3767 124.787 38.1347 125.624 37.6561C126.459 37.1774 127.123 36.5088 127.594 35.666C128.067 34.8231 128.306 33.8371 128.306 32.7393C128.306 31.6415 128.065 30.6373 127.586 29.7945C127.107 28.9516 126.441 28.283 125.606 27.8044C124.768 27.3257 123.796 27.0837 122.713 27.0837L122.711 27.0864ZM122.711 36.8392C121.954 36.8392 121.275 36.6623 120.692 36.3111C120.107 35.9599 119.641 35.4734 119.308 34.8595C118.972 34.2508 118.803 33.5354 118.803 32.7393C118.803 31.9433 118.972 31.2279 119.308 30.6113C119.644 29.9922 120.109 29.5005 120.695 29.1493C121.28 28.7981 121.959 28.6212 122.713 28.6212C123.468 28.6212 124.149 28.7981 124.732 29.1493C125.315 29.5005 125.78 29.9922 126.108 30.6113C126.436 31.2279 126.6 31.9433 126.6 32.7393C126.6 33.5354 126.433 34.2456 126.108 34.8569C125.78 35.4682 125.317 35.9573 124.732 36.3085C124.147 36.6597 123.468 36.8366 122.713 36.8366L122.711 36.8392ZM122.711 28.9724C122.019 28.9724 121.4 29.1337 120.872 29.4511C120.341 29.7685 119.919 30.2159 119.612 30.7804C119.305 31.3449 119.152 32.0057 119.152 32.7419C119.152 33.4781 119.308 34.1363 119.612 34.693C119.917 35.2497 120.341 35.6946 120.872 36.0119C121.4 36.3293 122.019 36.4906 122.711 36.4906C123.403 36.4906 124.022 36.3293 124.55 36.0119C125.081 35.6946 125.5 35.2497 125.799 34.6956C126.098 34.1363 126.249 33.4807 126.249 32.7419C126.249 32.0031 126.098 31.3449 125.796 30.7778C125.497 30.2159 125.078 29.7685 124.55 29.4511C124.019 29.1337 123.4 28.9724 122.711 28.9724Z" fill="#33281C"/>
<path d="M136.871 38.5536C135.739 38.5536 134.737 38.3065 133.871 37.8096C133.005 37.3127 132.321 36.6285 131.826 35.7544C131.329 34.8803 131.082 33.8762 131.082 32.7445C131.082 31.6129 131.329 30.5879 131.826 29.7138C132.323 28.8398 133.005 28.1556 133.871 27.6587C134.737 27.1618 135.739 26.9147 136.871 26.9147C138.002 26.9147 138.983 27.1618 139.849 27.6587C140.715 28.1556 141.397 28.8398 141.894 29.7138C142.391 30.5879 142.638 31.5999 142.638 32.7445C142.638 33.8892 142.393 34.8803 141.904 35.7544C141.415 36.6285 140.736 37.3153 139.87 37.8096C139.004 38.3065 138.002 38.5536 136.871 38.5536ZM136.871 36.6649C137.596 36.6649 138.241 36.4958 138.801 36.1603C139.36 35.8247 139.797 35.3616 140.112 34.7763C140.427 34.1883 140.583 33.512 140.583 32.7419C140.583 31.9719 140.427 31.2903 140.112 30.6972C139.797 30.1041 139.36 29.6384 138.801 29.3028C138.241 28.9672 137.599 28.7981 136.871 28.7981C136.142 28.7981 135.5 28.9672 134.94 29.3028C134.381 29.6384 133.941 30.1041 133.619 30.6972C133.296 31.2929 133.137 31.9745 133.137 32.7419C133.137 33.5094 133.299 34.1883 133.619 34.7763C133.941 35.3642 134.381 35.8247 134.94 36.1603C135.5 36.4958 136.142 36.6649 136.871 36.6649Z" fill="#FED39A"/>
<path d="M136.87 38.7279C135.713 38.7279 134.675 38.4703 133.782 37.9604C132.893 37.4506 132.183 36.7378 131.673 35.8403C131.163 34.9428 130.905 33.9022 130.905 32.7445C130.905 31.5869 131.163 30.5229 131.673 29.628C132.183 28.7305 132.893 28.0177 133.782 27.5078C134.672 26.9979 135.71 26.7404 136.87 26.7404C138.031 26.7404 139.045 26.9979 139.935 27.5078C140.825 28.0177 141.535 28.7305 142.045 29.628C142.555 30.5255 142.812 31.5739 142.812 32.7445C142.812 33.9152 142.557 34.9428 142.055 35.8403C141.553 36.7378 140.845 37.4532 139.956 37.963C139.066 38.4729 138.028 38.7305 136.868 38.7305L136.87 38.7279ZM136.87 27.0864C135.773 27.0864 134.794 27.3283 133.957 27.807C133.122 28.2856 132.456 28.9542 131.977 29.7971C131.498 30.6399 131.256 31.6311 131.256 32.7419C131.256 33.8527 131.498 34.8231 131.977 35.666C132.456 36.5088 133.122 37.1774 133.957 37.6561C134.794 38.1347 135.773 38.3767 136.87 38.3767C137.968 38.3767 138.946 38.1347 139.784 37.6561C140.619 37.1774 141.282 36.5088 141.753 35.666C142.227 34.8231 142.466 33.8371 142.466 32.7393C142.466 31.6415 142.224 30.6373 141.746 29.7945C141.267 28.9516 140.601 28.283 139.766 27.8044C138.928 27.3257 137.955 27.0837 136.873 27.0837L136.87 27.0864ZM136.87 36.8392C136.113 36.8392 135.434 36.6623 134.852 36.3111C134.266 35.9599 133.801 35.4734 133.468 34.8595C133.132 34.2482 132.963 33.5354 132.963 32.7393C132.963 31.9433 133.132 31.2279 133.468 30.6113C133.803 29.9922 134.269 29.5005 134.854 29.1493C135.44 28.7981 136.119 28.6212 136.873 28.6212C137.627 28.6212 138.309 28.7981 138.892 29.1493C139.477 29.5005 139.938 29.9922 140.268 30.6113C140.596 31.2305 140.76 31.9459 140.76 32.7393C140.76 33.5328 140.593 34.2456 140.265 34.8569C139.938 35.4682 139.474 35.9573 138.892 36.3085C138.306 36.6597 137.627 36.8366 136.87 36.8366V36.8392ZM136.87 28.9724C136.178 28.9724 135.559 29.1337 135.031 29.4511C134.5 29.7685 134.079 30.2159 133.772 30.7804C133.465 31.3475 133.312 32.0057 133.312 32.7419C133.312 33.4781 133.468 34.1363 133.772 34.693C134.076 35.2497 134.5 35.6946 135.031 36.0119C135.559 36.3293 136.178 36.4906 136.87 36.4906C137.562 36.4906 138.182 36.3293 138.71 36.0119C139.238 35.6946 139.659 35.2497 139.956 34.6956C140.255 34.1363 140.408 33.4781 140.408 32.7419C140.408 32.0057 140.258 31.3449 139.956 30.7778C139.657 30.2159 139.238 29.7685 138.71 29.4511C138.179 29.1337 137.56 28.9724 136.87 28.9724Z" fill="#33281C"/>
<path d="M151.03 38.5536C149.94 38.5536 148.957 38.2986 148.083 37.7887C147.209 37.2789 146.517 36.5817 146.007 35.7024C145.497 34.8205 145.242 33.8293 145.242 32.7237C145.242 31.6181 145.476 30.6295 145.944 29.7554C146.413 28.8814 147.053 28.1894 147.864 27.6795C148.676 27.1696 149.592 26.9147 150.611 26.9147C151.436 26.9147 152.198 27.0864 152.898 27.4297C153.598 27.7731 154.186 28.2362 154.659 28.8241V23.1608C154.659 22.8382 154.761 22.5806 154.964 22.3855C155.167 22.1904 155.421 22.0916 155.728 22.0916C156.035 22.0916 156.309 22.1904 156.504 22.3855C156.699 22.5806 156.798 22.8408 156.798 23.1608V32.7263C156.798 33.8319 156.543 34.8231 156.033 35.705C155.523 36.5869 154.834 37.2815 153.967 37.7913C153.101 38.3012 152.12 38.5562 151.03 38.5562V38.5536ZM151.03 36.6649C151.743 36.6649 152.38 36.4932 152.94 36.1498C153.499 35.8064 153.939 35.3356 154.261 34.7346C154.584 34.1337 154.742 33.4625 154.742 32.7211C154.742 31.9797 154.581 31.2955 154.261 30.7076C153.939 30.1196 153.499 29.6566 152.94 29.3132C152.38 28.9698 151.743 28.7981 151.03 28.7981C150.317 28.7981 149.698 28.9698 149.131 29.3132C148.564 29.6566 148.117 30.1223 147.789 30.7076C147.461 31.2955 147.294 31.9667 147.294 32.7211C147.294 33.4755 147.458 34.1337 147.789 34.7346C148.117 35.3356 148.564 35.809 149.131 36.1498C149.698 36.4932 150.33 36.6649 151.03 36.6649Z" fill="#FED39A"/>
<path d="M33.8347 4.5968C44.995 4.62021 54.035 13.6733 54.035 24.8387C54.035 34.9428 46.6313 43.3195 36.9513 44.8361C35.3149 45.0937 33.8347 43.8372 33.8347 42.1827V4.5968Z" fill="#FED39A"/>
<path d="M36.5298 45C35.8586 45 35.2056 44.7632 34.6879 44.321C34.0636 43.7851 33.7046 43.0073 33.7046 42.1852V4.46667H33.8347C45.0443 4.49009 54.1651 13.629 54.1651 24.8387C54.1651 29.7242 52.4091 34.4485 49.2223 38.1425C46.0667 41.7976 41.7171 44.2195 36.972 44.9636C36.8237 44.987 36.6781 44.9974 36.5298 44.9974V45ZM33.9647 4.72682V42.1826C33.9647 42.9292 34.2899 43.6368 34.857 44.1207C35.4294 44.6098 36.1864 44.8231 36.9304 44.706C41.613 43.9724 45.908 41.5791 49.0246 37.9708C52.1723 34.3236 53.9049 29.6592 53.9049 24.8361C53.9049 13.8111 44.9715 4.81787 33.9647 4.72422V4.72682Z" fill="#33281C"/>
<path d="M33.8347 8.80078C42.6927 8.80078 49.8727 15.9808 49.8727 24.8388C49.8727 33.6967 42.6927 40.8767 33.8347 40.8767V8.80078Z" fill="#7A2505"/>
<path d="M33.8347 41.0094H33.7046V8.67065H33.8347C42.7499 8.67065 50.0027 15.9235 50.0027 24.8387C50.0027 33.7539 42.7499 41.0094 33.8347 41.0094ZM33.9647 8.9308V40.7492C42.677 40.679 49.7426 33.5692 49.7426 24.8413C49.7426 16.1134 42.677 9.00364 33.9647 8.9334V8.9308Z" fill="#33281C"/>
<path d="M31.189 40.8793V4.7555C29.9143 4.82313 29.1287 5.33822 29.1287 5.33822C29.1287 5.33822 25.2655 -1.46459 21.8888 0.483904C20.2083 1.45425 21.1916 8.43916 21.1916 8.43916C17.8592 10.4319 14.6282 13.4444 12.1828 17.9891C12.1828 17.9891 10.5777 21.7326 4.05584 26.9719C-2.46601 32.2113 4.6984 33.923 4.6984 33.923C4.6984 33.923 7.79934 37.4506 21.9122 37.8798M18.1896 21.9121C18.1896 20.7623 19.1209 19.8309 20.2707 19.8309C21.4206 19.8309 22.3519 20.7623 22.3519 21.9121C22.3519 23.0619 21.4206 23.9933 20.2707 23.9933C19.1209 23.9933 18.1896 23.0619 18.1896 21.9121Z" fill="#FED39A"/>
<path d="M31.3191 40.8793H31.059V4.89332C29.9169 4.98698 29.2067 5.43963 29.1989 5.44483L29.0818 5.52028L29.0142 5.40061C28.9908 5.35638 26.535 1.07959 23.8971 0.361587C23.2 0.171681 22.547 0.249724 21.9513 0.593117C20.6349 1.35274 21.0459 6.49842 21.3165 8.4183L21.3295 8.50415L21.2541 8.54837C17.4898 10.7986 14.4747 13.9958 12.292 18.0489C12.2816 18.0749 10.6063 21.8704 4.13387 27.0707C2.10734 28.6967 1.21764 30.1301 1.48819 31.3319C1.88361 33.0931 4.69579 33.7877 4.7244 33.7929L4.76343 33.8033L4.79204 33.8345C4.79204 33.8345 5.59589 34.7164 8.09329 35.6295C10.4008 36.475 14.6698 37.526 21.9148 37.7471L21.907 38.0073C8.43668 37.5988 4.98715 34.4121 4.62815 34.0374C4.26135 33.9438 1.64688 33.2128 1.23845 31.3892C0.944488 30.0832 1.8654 28.564 3.97519 26.8678C10.3904 21.7143 12.0475 17.9734 12.0631 17.937C14.2587 13.8579 17.2816 10.6425 21.0511 8.37147C20.9393 7.5286 20.1719 1.32413 21.8238 0.369391C22.4819 -0.0104214 23.2026 -0.0962694 23.9674 0.111847C26.4934 0.798632 28.7567 4.44848 29.1755 5.15867C29.4434 5.01299 30.1562 4.68001 31.1812 4.62538L31.3191 4.61757V40.8793ZM20.2707 24.1233C19.0506 24.1233 18.0595 23.1321 18.0595 21.9121C18.0595 20.692 19.0506 19.7008 20.2707 19.7008C21.4908 19.7008 22.4819 20.692 22.4819 21.9121C22.4819 23.1321 21.4908 24.1233 20.2707 24.1233ZM20.2707 19.961C19.1937 19.961 18.3196 20.8377 18.3196 21.9121C18.3196 22.9865 19.1963 23.8631 20.2707 23.8631C21.3451 23.8631 22.2218 22.9865 22.2218 21.9121C22.2218 20.8377 21.3451 19.961 20.2707 19.961Z" fill="#33281C"/>
<path d="M17.5391 18.309C12.5443 21.769 11.6546 23.9178 11.587 24.9271C11.561 25.3017 11.7899 25.6425 12.1281 25.8038C17.4376 28.3246 20.536 33.5119 21.228 34.771C21.3242 34.9453 21.3763 35.1378 21.3815 35.3356C21.3997 35.9755 21.4907 37.4948 21.907 37.8746C23.8268 39.628 27.037 40.8793 31.1863 40.8793V25.424C26.2176 20.7778 20.7129 18.7253 18.8138 18.1139C18.382 17.976 17.9111 18.0489 17.5391 18.309ZM18.2415 22.3881C17.9059 20.8689 19.2275 19.5473 20.7467 19.8829C21.5115 20.052 22.1307 20.6711 22.2998 21.436C22.6354 22.9552 21.3138 24.2794 19.7946 23.9412C19.0297 23.7721 18.4106 23.1529 18.2415 22.3881Z" fill="#7A2505"/>
<path d="M31.3189 41.0094H31.1889C27.3491 41.0094 23.936 39.9011 21.8236 37.9709C21.3866 37.5728 21.2799 36.1498 21.2565 35.3382C21.2513 35.1587 21.2045 34.9896 21.1186 34.8335C20.3122 33.3663 17.2763 28.3923 12.076 25.9209C11.6753 25.731 11.4334 25.3356 11.4594 24.9168C11.5245 23.9178 12.3933 21.7144 17.4662 18.2024C17.872 17.9214 18.3923 17.8434 18.8554 17.9917C20.9495 18.6629 26.3502 20.7232 31.2773 25.3304L31.3189 25.3694V41.0094ZM18.3793 18.1764C18.1114 18.1764 17.8408 18.257 17.6145 18.4157C12.6327 21.8652 11.782 23.9802 11.7196 24.935C11.6988 25.2471 11.8835 25.5411 12.1878 25.6868C17.4584 28.1894 20.5307 33.2258 21.3476 34.7086C21.4542 34.9011 21.5115 35.1119 21.5193 35.333C21.5583 36.6259 21.7378 37.5416 22.0031 37.781C24.0453 39.6462 27.3413 40.7258 31.064 40.7518V25.4839C26.1863 20.9391 20.8533 18.9074 18.7825 18.2414C18.6525 18.1998 18.5198 18.179 18.3845 18.179L18.3793 18.1764ZM20.2654 24.1233C20.0989 24.1233 19.9324 24.1051 19.7659 24.0687C18.9568 23.8892 18.2935 23.2258 18.114 22.4168C17.9449 21.6597 18.1686 20.8871 18.7045 20.3486C19.243 19.8101 20.0156 19.589 20.7726 19.7555C21.5817 19.935 22.2451 20.5983 22.4246 21.4074C22.5937 22.1644 22.3699 22.937 21.8314 23.4755C21.4126 23.8944 20.8481 24.1233 20.2628 24.1233H20.2654ZM20.2758 19.961C19.7581 19.961 19.2612 20.1613 18.8892 20.5307C18.4131 21.0068 18.218 21.6883 18.3663 22.3595C18.525 23.0723 19.1077 23.655 19.8205 23.8137C20.4891 23.962 21.1733 23.7669 21.6493 23.2908C22.1254 22.8148 22.3205 22.1332 22.1722 21.462C22.0135 20.7492 21.4308 20.1665 20.718 20.0078C20.5697 19.974 20.4214 19.9584 20.2758 19.9584V19.961Z" fill="#33281C"/>
<path d="M0.385199 28.9412C-0.246955 29.7346 0.400808 32.1488 1.19685 33.0437C1.50643 33.3922 1.74316 34.0192 4.69581 33.9203C7.64847 33.8215 6.77178 29.1519 6.43098 28.4157C6.09019 27.6795 5.43463 27.5416 5.43463 27.5416C5.43463 27.5416 2.12037 26.7637 0.385199 28.9412Z" fill="#7A2505"/>
<path d="M4.11561 34.0582C1.86014 34.0582 1.45172 33.5561 1.17336 33.2153C1.14735 33.1841 1.12393 33.1555 1.10052 33.1269C0.301872 32.2294 -0.413529 29.732 0.286263 28.8579C2.05265 26.6441 5.43455 27.4037 5.46836 27.4141C5.49438 27.4193 6.19157 27.5728 6.55317 28.361C6.83153 28.9672 7.34662 31.6206 6.45172 33.0749C6.0693 33.6966 5.48137 34.0244 4.70354 34.0504C4.49542 34.0582 4.30031 34.0608 4.11821 34.0608L4.11561 34.0582ZM4.07659 27.539C2.98397 27.539 1.46732 27.7939 0.489176 29.0192C-0.0727383 29.7242 0.504785 32.0655 1.29563 32.9552C1.32164 32.9864 1.34766 33.0176 1.37627 33.0514C1.64422 33.3792 2.05005 33.8787 4.69313 33.7877C5.37731 33.7642 5.8924 33.4781 6.22799 32.9344C7.07607 31.5582 6.55057 28.975 6.31644 28.4677C6.00947 27.8043 5.43455 27.6716 5.41113 27.6664C5.39813 27.6638 4.84141 27.539 4.07919 27.539H4.07659Z" fill="#33281C"/>
</g>
<defs>
<clipPath id="clip0_4717_23501">
<rect width="156.8" height="45" fill="white"/>
</clipPath>
</defs>
</svg>
