<svg xmlns="http://www.w3.org/2000/svg" xmlns:xlink="http://www.w3.org/1999/xlink">
    <symbol viewBox="0 0 35 35" id="ico-linkedin">
        <title>linkedin</title>
        <path d="M17.5 0C7.8 0 0 7.8 0 17.5S7.8 35 17.5 35 35 27.2 35 17.5C35 7.8 27.2 0 17.5 0zM13.1 26H8.8V10.7h4.4V26zM11.1 9.7c-1.1 0-2-0.9-2-2.1s0.9-2.1 2.1-2.1c1.1 0 2.1 0.9 2.1 2.1C13.1 8.8 12.2 9.7 11.1 9.7zM28.4 26h-4.4V16.5c0-1.1-0.3-1.9-1.7-1.9 -2.3 0-2.7 1.9-2.7 1.9v9.5h-4.4V10.7h4.4v1.5c0.6-0.5 2.2-1.5 4.4-1.5 1.4 0 4.4 0.8 4.4 6V26z"/>
    </symbol>
    <symbol viewBox="0 0 35 35" id="ico-behance">
        <title>behance</title>
        <path d="M14.1 13.9c0-1.7-1.1-1.7-1.1-1.7h-0.6H8.3v3.5h4.3C13.4 15.8 14.1 15.5 14.1 13.9z"/>
        <path d="M13 18.2H8.3v4.2h4.4c0.7 0 1.9-0.2 1.9-2.1C14.6 18.2 13 18.2 13 18.2z"/>
        <path d="M24.8 15.8c-2.5 0-2.8 2.4-2.8 2.4h5.2C27.2 18.2 27.2 15.8 24.8 15.8z"/>
        <path d="M17.5 0C7.8 0 0 7.8 0 17.5S7.8 35 17.5 35 35 27.2 35 17.5 27.2 0 17.5 0zM21.3 10.3h6.6v2h-6.5V10.3zM18 20.6c0 4.8-5 4.7-5 4.7H8.3 8.2 4.7V9.4h3.5 0.1 4.6c2.5 0 4.5 1.4 4.5 4.2s-2.4 3-2.4 3C18.2 16.6 18 20.6 18 20.6zM24.8 23.1c2.6 0 2.5-1.7 2.5-1.7h2.8c0 4.5-5.4 4.2-5.4 4.2 -6.5 0-6.1-6.1-6.1-6.1s0-6.1 6.1-6.1c6.4 0 5.5 6.9 5.5 6.9H22C22 23.3 24.8 23.1 24.8 23.1z"/>
    </symbol>
    <symbol viewBox="0 0 35 35" id="ico-facebook">
        <title>facebook</title>
        <path d="M17.5 0C7.8 0 0 7.8 0 17.5S7.8 35 17.5 35 35 27.2 35 17.5C35 7.8 27.2 0 17.5 0zM23.6 9.6h-2.2c-0.8 0-1.4 0.2-1.6 0.5 -0.3 0.3-0.4 0.9-0.4 1.5v2.7h4.2l-0.5 4.2h-3.6v10.8h-4.3V18.5h-3.6V14.3h3.6v-3.1c0-1.8 0.5-3.1 1.5-4.1 1-1 2.3-1.5 3.9-1.5 1.4 0 2.5 0.1 3.2 0.2C23.6 5.9 23.6 9.6 23.6 9.6z"/>
    </symbol>
    <symbol viewBox="0 0 35 35" id="ico-instagram">
        <title>instagram</title>
        <path d="M17.5 21c1.9 0 3.5-1.6 3.5-3.5 0-0.8-0.2-1.5-0.7-2 -0.6-0.9-1.7-1.5-2.8-1.5s-2.2 0.6-2.8 1.5c-0.4 0.6-0.7 1.3-0.7 2C14 19.4 15.6 21 17.5 21z"/>
        <polygon points="25.2 13.2 25.2 10.3 25.2 9.8 24.7 9.8 21.8 9.9 21.8 13.2 "/>
        <path d="M17.5 0C7.9 0 0 7.9 0 17.5S7.9 35 17.5 35 35 27.1 35 17.5 27.2 0 17.5 0zM27.5 15.5v8.1c0 2.1-1.7 3.8-3.8 3.8H11.4c-2.1 0-3.8-1.7-3.8-3.8v-8.1 -4.1c0-2.1 1.7-3.8 3.8-3.8h12.2c2.1 0 3.8 1.7 3.8 3.8L27.5 15.5 27.5 15.5z"/>
        <path d="M22.9 17.5c0 3-2.4 5.4-5.4 5.4s-5.4-2.4-5.4-5.4c0-0.7 0.1-1.4 0.4-2H9.5v8.1c0 1.1 0.9 1.9 1.9 1.9h12.2c1.1 0 1.9-0.9 1.9-1.9v-8.1h-3C22.8 16.1 22.9 16.8 22.9 17.5z"/>
    </symbol>
    <symbol viewBox="0 0 35 35" id="ico-odnoklassniki">
        <title>odnoklassniki</title>
        <path d="M17.5 14.5c1.7 0 3-1.3 3-3s-1.3-3-3-3c-1.7 0-3 1.4-3 3C14.5 13.2 15.8 14.5 17.5 14.5z"/>
        <path d="M17.5 0C7.8 0 0 7.8 0 17.5S7.8 35 17.5 35 35 27.2 35 17.5 27.2 0 17.5 0zM17.5 5.3c3.4 0 6.1 2.8 6.1 6.2 0 3.4-2.8 6.1-6.2 6.1 -3.4 0-6.1-2.8-6.1-6.2C11.4 8.1 14.1 5.3 17.5 5.3zM24.4 20.1c-0.8 0.8-1.7 1.3-2.7 1.7 -1 0.4-2 0.6-3 0.7 0.2 0.2 0.2 0.3 0.3 0.4 1.4 1.4 2.8 2.8 4.2 4.2 0.5 0.5 0.6 1.1 0.3 1.6 -0.3 0.6-0.9 1-1.6 1 -0.4 0-0.7-0.2-1-0.5 -1.1-1.1-2.1-2.1-3.2-3.2 -0.3-0.3-0.4-0.3-0.7 0 -1.1 1.1-2.1 2.2-3.2 3.2 -0.5 0.5-1.1 0.6-1.6 0.3 -0.6-0.3-1-0.9-1-1.5 0-0.4 0.2-0.7 0.5-1 1.4-1.4 2.8-2.8 4.2-4.2 0.1-0.1 0.2-0.2 0.3-0.3 -1.9-0.2-3.6-0.7-5-1.8 -0.2-0.1-0.4-0.3-0.5-0.4 -0.6-0.6-0.7-1.3-0.2-2 0.4-0.6 1.2-0.8 1.9-0.4 0.1 0.1 0.3 0.2 0.4 0.2 2.7 1.9 6.4 1.9 9.2 0.1 0.3-0.2 0.6-0.4 0.9-0.5 0.7-0.2 1.3 0.1 1.6 0.6C24.9 18.9 24.9 19.6 24.4 20.1z"/>
    </symbol>
    <symbol viewBox="0 0 35 35" id="ico-twitter">
        <title>twitter</title>
        <path d="M17.5 0C7.8 0 0 7.8 0 17.5S7.8 35 17.5 35 35 27.2 35 17.5C35 7.8 27.2 0 17.5 0zM26.2 13.6l0 0.6c0 5.7-4.3 12.3-12.3 12.3 -2.4 0-4.7-0.7-6.6-1.9 0.3 0 0.7 0.1 1 0.1 2 0 3.9-0.7 5.4-1.8 -1.9 0-3.5-1.3-4-3 0.3 0.1 0.5 0.1 0.8 0.1 0.4 0 0.8 0 1.1-0.1 -2-0.4-3.5-2.1-3.5-4.2v-0.1c0.6 0.3 1.2 0.5 2 0.5 -1.2-0.8-1.9-2.1-1.9-3.6 0-0.8 0.2-1.5 0.6-2.2 2.1 2.6 5.3 4.3 8.9 4.5 -0.1-0.3-0.1-0.6-0.1-1 0-2.4 1.9-4.3 4.3-4.3 1.2 0 2.4 0.5 3.1 1.4 1-0.2 1.9-0.6 2.7-1 -0.3 1-1 1.9-1.9 2.4 0.9-0.1 1.7-0.3 2.5-0.7C27.8 12.2 27 13 26.2 13.6z"/>
    </symbol>
    <symbol viewBox="0 0 35 35" id="ico-vimeo">
        <title>vimeo</title>
        <path d="M17.5 0C7.8 0 0 7.8 0 17.5S7.8 35 17.5 35 35 27.2 35 17.5 27.2 0 17.5 0zM29.9 11.7c-0.1 2.4-1.8 5.7-5.1 9.9 -3.4 4.4-6.2 6.6-8.5 6.6 -1.4 0-2.7-1.3-3.7-4 -0.7-2.4-1.3-4.9-2-7.3 -0.7-2.7-1.5-4-2.4-4 -0.2 0-0.8 0.4-1.9 1.2l-1.2-1.5c1.2-1.1 2.4-2.1 3.6-3.2 1.6-1.4 2.9-2.1 3.7-2.2 1.9-0.2 3.1 1.1 3.6 4 0.5 3 0.8 4.9 1 5.7 0.6 2.5 1.2 3.8 1.8 3.8 0.5 0 1.3-0.8 2.3-2.5 1-1.6 1.6-2.9 1.7-3.7 0.1-1.4-0.4-2.1-1.7-2.1 -0.6 0-1.2 0.1-1.8 0.4 1.2-4 3.5-5.9 7-5.8C28.8 6.9 30 8.5 29.9 11.7z"/>
    </symbol>
    <symbol viewBox="0 0 35 35" id="ico-vk">
        <title>vk</title>
        <path d="M17.5 0C7.8 0 0 7.8 0 17.5S7.8 35 17.5 35 35 27.2 35 17.5 27.2 0 17.5 0zM26.4 19.4c0.8 0.8 1.7 1.5 2.4 2.4 0.3 0.4 0.6 0.8 0.9 1.2 0.3 0.6 0 1.4-0.5 1.4l-3.6 0c-0.9 0.1-1.7-0.3-2.3-0.9 -0.5-0.5-1-1-1.4-1.6 -0.2-0.2-0.4-0.4-0.6-0.6 -0.5-0.3-0.9-0.2-1.2 0.3 -0.3 0.5-0.4 1.1-0.4 1.7 0 0.8-0.3 1.1-1.1 1.1 -1.8 0.1-3.5-0.2-5.1-1.1 -1.4-0.8-2.5-1.9-3.5-3.2 -1.9-2.5-3.3-5.3-4.5-8.1 -0.3-0.6-0.1-1 0.6-1 1.2 0 2.3 0 3.5 0 0.5 0 0.8 0.3 1 0.7 0.6 1.6 1.4 3 2.4 4.4 0.3 0.4 0.5 0.7 0.9 1 0.4 0.3 0.7 0.2 0.9-0.3 0.1-0.3 0.2-0.6 0.2-0.9 0.1-1.1 0.1-2.2-0.1-3.2 -0.1-0.7-0.5-1.1-1.2-1.2 -0.3-0.1-0.3-0.2-0.1-0.4 0.3-0.3 0.6-0.5 1.1-0.5l4.1 0c0.6 0.1 0.8 0.4 0.9 1.1l0 4.5c0 0.2 0.1 1 0.6 1.1 0.4 0.1 0.6-0.2 0.8-0.4 1-1 1.7-2.2 2.3-3.5 0.3-0.6 0.5-1.1 0.7-1.7 0.2-0.4 0.4-0.6 0.9-0.6l3.9 0c0.1 0 0.2 0 0.3 0 0.7 0.1 0.8 0.4 0.6 1 -0.3 1-0.9 1.8-1.5 2.7 -0.7 0.9-1.3 1.8-2 2.7C25.6 18.3 25.6 18.7 26.4 19.4z"/>
    </symbol>
    <symbol viewBox="0 0 35 35" id="ico-youtube">
        <title>youtube</title>
        <path d="M15.2 24.5c0 0.3 0 0.5 0 0.6 0 0.2 0 0.2-0.1 0.3 0 0.2-0.2 0.3-0.4 0.4 -0.2 0.1-0.3 0-0.5-0.3 0 0 0-0.1 0-0.3 0-0.2 0-0.4 0-0.6l0-3.8h-1.4l0 3.8c0 0.3 0 0.5 0 0.7s0 0.4 0 0.5c0 0.2 0 0.3 0.1 0.5 0 0.2 0.1 0.3 0.3 0.5 0.2 0.1 0.4 0.2 0.6 0.2 0.2 0 0.4 0 0.7-0.1 0.2-0.1 0.4-0.2 0.6-0.3 0.2-0.1 0.3-0.3 0.4-0.4l0 0.8L16.7 26.8v-6.1h-1.4L15.2 24.5 15.2 24.5z"/>
        <path d="M20.1 20.5c-0.3 0-0.7 0.2-1.2 0.5V18.6h-1.4v8.2l1.2 0 0.1-0.5c0.4 0.3 0.7 0.5 1 0.6 0.3 0.1 0.6 0 0.8-0.1 0.2-0.1 0.4-0.3 0.5-0.6 0.1-0.3 0.2-0.6 0.2-1v-3.2c0-0.6-0.2-1-0.6-1.3C20.5 20.5 20.3 20.5 20.1 20.5zM20.2 25.3c0 0.1-0.1 0.2-0.2 0.3 -0.1 0.1-0.3 0.1-0.4 0.1 -0.2 0-0.3 0-0.4-0.1 -0.1-0.1-0.2-0.2-0.2-0.3v-3.6c0-0.1 0.1-0.2 0.2-0.3 0.1-0.1 0.3-0.1 0.4-0.1 0.2 0 0.3 0 0.4 0.1 0.1 0.1 0.2 0.2 0.2 0.3V25.3z"/>
        <polygon points="13.2 18.6 8.6 18.6 8.6 19.6 10.1 19.6 10.1 26.8 11.5 26.8 11.5 19.6 13.2 19.6 "/>
        <path d="M17.5 0C7.8 0 0 7.8 0 17.5S7.8 35 17.5 35 35 27.2 35 17.5C35 7.8 27.2 0 17.5 0zM20 12.7V8.5h1.3v4.9c0 0.1 0 0.2 0.1 0.3 0.1 0.1 0.2 0.1 0.4 0.1 0.1 0 0.3 0 0.4-0.1 0.1-0.1 0.2-0.2 0.2-0.3V8.5h1.2v6.3h-1.6l0-0.5c-0.1 0.2-0.3 0.4-0.4 0.5 -0.2 0.1-0.3 0.2-0.5 0.2 -0.2 0-0.4-0.1-0.6-0.2 -0.1-0.1-0.3-0.2-0.4-0.4 0-0.1-0.1-0.2-0.1-0.3 0-0.1 0-0.2 0-0.3 0-0.1 0-0.2 0-0.4L20 12.7 20 12.7zM16.1 8.6c0.3-0.2 0.6-0.3 1.1-0.3 0.4 0 0.7 0.1 1 0.2 0.3 0.1 0.5 0.3 0.6 0.5 0.1 0.2 0.2 0.4 0.3 0.6 0.1 0.3 0.1 0.6 0.1 1v1.6c0 0.6 0 1-0.1 1.3 0 0.2-0.1 0.5-0.3 0.8 -0.2 0.3-0.4 0.4-0.6 0.5 -0.3 0.1-0.6 0.2-0.9 0.2 -0.3 0-0.7 0-0.9-0.2 -0.3-0.1-0.5-0.2-0.6-0.4 -0.1-0.2-0.2-0.4-0.3-0.7 -0.1-0.3-0.1-0.7-0.1-1.3 0 0 0-1.7 0-1.7 0-0.6 0.1-1 0.2-1.4C15.6 9 15.8 8.7 16.1 8.6zM11.9 6l0.9 3.1 0.9-3.1h1.7l-1.8 4.2v4.8H12.2v-4.8l-1.9-4.2H11.9zM27.8 26c0 0.4-0.1 0.8-0.3 1.2 -0.2 0.4-0.4 0.7-0.7 0.9 -0.3 0.3-0.7 0.5-1.1 0.6 -0.4 0.2-0.8 0.2-1.3 0.2H10.6c-0.5 0-0.9-0.1-1.3-0.2 -0.4-0.2-0.8-0.4-1.1-0.6 -0.3-0.3-0.6-0.6-0.7-0.9 -0.2-0.4-0.3-0.7-0.3-1.2v-6.8c0-0.4 0.1-0.8 0.3-1.2 0.2-0.4 0.4-0.7 0.7-0.9 0.3-0.3 0.7-0.5 1.1-0.6 0.4-0.2 0.8-0.2 1.3-0.2H24.4c0.5 0 0.9 0.1 1.3 0.2s0.8 0.4 1.1 0.6c0.3 0.3 0.6 0.6 0.7 0.9 0.2 0.4 0.3 0.7 0.3 1.2V26z"/>
        <path d="M17.2 13.9c0.2 0 0.3-0.1 0.4-0.2 0.1-0.1 0.2-0.3 0.2-0.4V9.9c0-0.2-0.1-0.3-0.2-0.5 -0.1-0.1-0.3-0.2-0.4-0.2 -0.2 0-0.3 0.1-0.4 0.2 -0.1 0.1-0.2 0.3-0.2 0.5v3.4c0 0.2 0.1 0.3 0.2 0.4C16.9 13.9 17.1 13.9 17.2 13.9z"/>
        <path d="M24.7 24.7v0.2 0.5c0 0.2-0.1 0.3-0.2 0.4 -0.1 0.1-0.3 0.1-0.4 0.1h-0.2c-0.2 0-0.3 0-0.4-0.1 -0.1-0.1-0.2-0.2-0.2-0.4v-0.1 -0.6 -0.8h2.5v-0.8c0-0.3 0-0.6 0-0.9 0-0.3 0-0.5-0.1-0.7 0-0.3-0.2-0.5-0.4-0.7 -0.2-0.2-0.5-0.3-0.7-0.3 -0.3-0.1-0.6-0.1-0.9 0 -0.3 0-0.5 0.1-0.8 0.3 -0.3 0.2-0.5 0.4-0.6 0.8 -0.1 0.3-0.2 0.8-0.2 1.3v1.9c0 0.8 0.2 1.4 0.6 1.7 0.4 0.3 0.8 0.5 1.2 0.5 0 0 0.1 0 0.1 0 0.5 0 0.9-0.2 1.3-0.6 0.3-0.3 0.4-0.6 0.4-1.1 0-0.1 0-0.3-0.1-0.5H24.7v0h0V24.7zM23.3 22.1c0-0.2 0.1-0.3 0.2-0.4 0.1-0.1 0.3-0.2 0.4-0.2h0.1c0.2 0 0.3 0.1 0.5 0.2 0.1 0.1 0.2 0.2 0.2 0.4l0 0.8h-1.4L23.3 22.1z"/>
    </symbol>
    <symbol viewBox="0 0 112.2 112.2" width="35" height="35" id="ico-pinterest">
        <circle cx="56.1" cy="56.1" r="56.1"/><path d="M60.6 75.1c-4.2-0.3-6-2.4-9.3-4.4 -1.8 9.6-4.1 18.8-10.7 23.6 -2-14.5 3-25.4 5.3-36.9 -4-6.7 0.5-20.2 8.9-16.9 10.4 4.1-9 25 4 27.6 13.6 2.7 19.1-23.5 10.7-32 -12.1-12.3-35.3-0.3-32.5 17.4 0.7 4.3 5.2 5.6 1.8 11.6 -7.8-1.7-10.1-7.8-9.8-16 0.5-13.4 12-22.7 23.6-24 14.6-1.6 28.4 5.4 30.3 19.1C85 59.5 76.3 76.3 60.6 75.1L60.6 75.1z" fill="#fff"/>
    </symbol>
    <symbol viewBox="0 0 35.1 35.1" id="ico-google-plus">
        <path d="M17.5,0C7.9,0,0,7.9,0,17.5s7.9,17.5,17.5,17.5s17.5-7.9,17.5-17.5S27.2,0,17.5,0z M21,17.5
            c0,4.8-3.9,8.7-8.7,8.7c-4.8,0-8.7-3.9-8.7-8.7c0-4.8,3.9-8.7,8.7-8.7c2.1,0,4.1,0.8,5.7,2.1l-2.3,2.6c-0.9-0.8-2.1-1.3-3.4-1.3
            c-2.9,0-5.2,2.4-5.2,5.2s2.4,5.2,5.2,5.2c2.3,0,4.2-1.5,4.9-3.5h-4.9v-3.5H21V17.5z M28,17.5V21h-1.7v-3.5h-3.5v-1.7h3.5v-3.5H28
            v3.5h3.5v1.7H28z"/>
    </symbol>
    <symbol viewBox="0 0 100 100" id="logoRaccoon">
        <path d="M68.6 10.2v12.6L57.3 20.3h0L50 20.3v0l-7.2 0h0l-11.3 2.5V10.2L12.8 28.9 0.9 40.7l0 0 9.2 9.2 13.5 13.5 9.3 9.3L50 89.8v0l17.1-17.1 9.3-9.3 13.4-13.5 9.2-9.2 -11.8-11.9L68.6 10.2zM64.3 71.8l0 0L50 66.7v0l-14.3 5.2 0 0 -9.7-9.8 9.6-5.9L50 53v0l14.4 3.1 9.6 5.9L64.3 71.8zM95.3 40.7l-7.5 7.6h0l-9.5-7.5 -9.6-3.9 -7.9 3.9L50 46V45.9l-10.7-5.2 -7.9-3.9 -9.6 3.9 -9.5 7.5 0 0 -7.5-7.6 0 0 12.6-12.6 11.6-11.6 0 9.9 0.1 0 14.7-3.6 0 0H50v0h6.4l14.7 3.6 0.1 0 0-9.9L82.7 28.1l12.6 12.6V40.7z"/>
    </symbol>
</svg>
