<svg xmlns="http://www.w3.org/2000/svg" xmlns:xlink="http://www.w3.org/1999/xlink">
    <symbol viewBox="0 0 35 35" id="ico-linkedin">
        <title>linkedin</title>
        <path d="M17.5 0C7.8 0 0 7.8 0 17.5S7.8 35 17.5 35 35 27.2 35 17.5C35 7.8 27.2 0 17.5 0zM13.1 26H8.8V10.7h4.4V26zM11.1 9.7c-1.1 0-2-0.9-2-2.1s0.9-2.1 2.1-2.1c1.1 0 2.1 0.9 2.1 2.1C13.1 8.8 12.2 9.7 11.1 9.7zM28.4 26h-4.4V16.5c0-1.1-0.3-1.9-1.7-1.9 -2.3 0-2.7 1.9-2.7 1.9v9.5h-4.4V10.7h4.4v1.5c0.6-0.5 2.2-1.5 4.4-1.5 1.4 0 4.4 0.8 4.4 6V26z"/>
    </symbol>
    <symbol viewBox="0 0 35 35" id="ico-facebook">
        <title>facebook</title>
        <path d="M17.5 0C7.8 0 0 7.8 0 17.5S7.8 35 17.5 35 35 27.2 35 17.5C35 7.8 27.2 0 17.5 0zM23.6 9.6h-2.2c-0.8 0-1.4 0.2-1.6 0.5 -0.3 0.3-0.4 0.9-0.4 1.5v2.7h4.2l-0.5 4.2h-3.6v10.8h-4.3V18.5h-3.6V14.3h3.6v-3.1c0-1.8 0.5-3.1 1.5-4.1 1-1 2.3-1.5 3.9-1.5 1.4 0 2.5 0.1 3.2 0.2C23.6 5.9 23.6 9.6 23.6 9.6z"/>
    </symbol>
    <symbol viewBox="0 0 35 35" id="ico-twitter-x-circle">
        <title>twitter-x</title>
        <path d="M20.3846 19.9266C21.0695 20.9012 21.7944 21.9331 22.4373 22.8469L24.86 26.2988C24.6672 26.3018 24.4103 26.3031 24.0735 26.3031H22.8716L20.2698 22.598C17.1642 18.1827 14.8279 14.8599 13.2634 12.6327C12.4811 11.519 11.8919 10.6794 11.496 10.1141L11.1818 9.66528C11.3737 9.66235 11.6299 9.66101 11.9672 9.66101H13.1694L14.8518 12.052C15.5433 13.0393 16.5025 14.4041 17.3087 15.551L18.1874 16.8018C18.6741 17.4921 19.4956 18.6613 20.3846 19.9266Z"/>
        <path fill-rule="evenodd" clip-rule="evenodd" d="M35 17.5C35 27.165 27.165 35 17.5 35C7.83502 35 0 27.165 0 17.5C0 7.83496 7.83502 0 17.5 0C27.165 0 35 7.83496 35 17.5ZM7.72839 27.8335C7.7265 27.8375 7.72192 27.8473 7.71698 27.8615C7.68146 27.9625 7.70532 28.0612 7.7511 28.1295C7.78839 28.1852 7.83423 28.2137 7.85242 28.2242C7.89166 28.2471 7.92822 28.2563 7.93927 28.2592C7.96985 28.2671 8.00177 28.2714 8.0249 28.2739C8.07593 28.2799 8.14423 28.2843 8.2226 28.2877C8.31458 28.2916 8.42804 28.2944 8.55762 28.2957C8.65192 28.2965 8.75482 28.2965 8.8642 28.2955L9.87433 28.2905L10.2487 27.8524L10.2496 27.8512C10.3588 27.7261 11.043 26.9399 11.9716 25.8719C12.4487 25.3234 12.9902 24.7003 13.5516 24.0542C14.9155 22.4845 16.1122 21.1069 16.5242 20.6305L17.1207 21.4808C17.3303 21.7791 17.7109 22.3213 18.1654 22.9689L18.4716 23.405C18.9219 24.0468 19.4186 24.7544 19.8818 25.4141L21.916 28.2999H25.0458C26.2818 28.2999 27.0275 28.2977 27.4622 28.2896C27.6777 28.2854 27.8253 28.2798 27.9202 28.2711C27.9636 28.2671 28.0156 28.261 28.0616 28.2478C28.0797 28.2426 28.1334 28.2268 28.1851 28.1849C28.2139 28.1616 28.2557 28.1193 28.2805 28.0527C28.3076 27.9805 28.3043 27.9072 28.2835 27.8462L28.2825 27.8435C28.275 27.8221 28.2662 27.8054 28.2642 27.8015C28.2607 27.7949 28.2575 27.7893 28.2554 27.7856C28.2515 27.7789 28.2473 27.7722 28.2436 27.7664L28.2423 27.7643C28.236 27.7543 28.2283 27.7424 28.2195 27.7292L28.2111 27.7164C28.1864 27.6793 28.1514 27.6278 28.1078 27.5641C28.0204 27.4365 27.896 27.2567 27.7438 27.038C27.4393 26.6003 27.0224 26.0049 26.5669 25.3564C25.6563 24.0647 24.6144 22.5807 24.2536 22.0658L24.2527 22.0646C24.1711 21.9495 24.0547 21.7842 23.9124 21.5817C23.7645 21.3712 23.5886 21.1206 23.395 20.8447C23.1558 20.5038 22.8895 20.1243 22.6151 19.7339C22.367 19.3809 22.1124 19.019 21.8654 18.6691C21.39 17.993 20.9576 17.3739 20.6443 16.9219C20.4876 16.6957 20.361 16.5117 20.2737 16.3835L20.2613 16.3652L20.337 16.276C20.4774 16.1111 20.6801 15.8745 20.9291 15.585C21.4271 15.006 22.1089 14.2164 22.8445 13.3671C24.3157 11.668 26.0001 9.73071 26.8545 8.7605L27.7815 7.70789H26.2191L25.1874 7.71289L24.0519 9.02063C23.4775 9.68408 22.0703 11.308 20.9221 12.6213L19.0936 14.7242L14.175 7.73083L11.0463 7.70789C10.2272 7.70129 9.47961 7.6991 8.93542 7.7002C8.66345 7.70081 8.44147 7.70215 8.28656 7.70422C8.20941 7.7052 8.14728 7.70642 8.10339 7.70789C8.09125 7.70825 8.07953 7.70874 8.06866 7.70935L8.04553 7.71057C8.03821 7.71106 8.02606 7.71204 8.01306 7.71387C8.00769 7.7146 7.99335 7.71655 7.97601 7.72107C7.96808 7.72314 7.94971 7.72815 7.92773 7.73792C7.91632 7.74292 7.84454 7.77417 7.79517 7.85291C7.74237 7.93713 7.74878 8.01855 7.75031 8.03711C7.75269 8.06653 7.75897 8.08911 7.7619 8.09912C7.76831 8.12048 7.77576 8.13672 7.77844 8.14246C7.78302 8.15247 7.78778 8.16138 7.79138 8.16785L7.79517 8.17468C7.79907 8.18152 7.80347 8.18884 7.80804 8.19629L7.82355 8.22107C7.84448 8.25415 7.87463 8.2998 7.91193 8.35559C7.98694 8.46765 8.09564 8.62695 8.22943 8.82129C8.49731 9.21033 8.86816 9.74255 9.27673 10.3236L11.3726 13.3059C11.9691 14.1548 12.5887 15.0364 13.1331 15.8105L15.3725 18.9973L15.3685 19.0021C15.3163 19.0629 14.8521 19.5967 14.145 20.4093L11.4987 23.4513C10.4771 24.6277 9.54669 25.7007 8.87109 26.4822C8.53333 26.873 8.25903 27.1913 8.06879 27.4132C8.00879 27.4833 7.95697 27.5441 7.91406 27.5946L7.84808 27.6724C7.82269 27.7025 7.80225 27.7271 7.78766 27.745C7.78058 27.7537 7.77338 27.7626 7.76727 27.7705C7.76453 27.774 7.7597 27.7805 7.75458 27.788C7.75226 27.7914 7.74713 27.7988 7.74146 27.8085C7.73865 27.8134 7.7337 27.822 7.72839 27.8335Z"/>
    </symbol>
    <symbol viewBox="0 0 35 35" id="ico-youtube">
        <title>youtube</title>
        <path d="M15.2 24.5c0 0.3 0 0.5 0 0.6 0 0.2 0 0.2-0.1 0.3 0 0.2-0.2 0.3-0.4 0.4 -0.2 0.1-0.3 0-0.5-0.3 0 0 0-0.1 0-0.3 0-0.2 0-0.4 0-0.6l0-3.8h-1.4l0 3.8c0 0.3 0 0.5 0 0.7s0 0.4 0 0.5c0 0.2 0 0.3 0.1 0.5 0 0.2 0.1 0.3 0.3 0.5 0.2 0.1 0.4 0.2 0.6 0.2 0.2 0 0.4 0 0.7-0.1 0.2-0.1 0.4-0.2 0.6-0.3 0.2-0.1 0.3-0.3 0.4-0.4l0 0.8L16.7 26.8v-6.1h-1.4L15.2 24.5 15.2 24.5z"/>
        <path d="M20.1 20.5c-0.3 0-0.7 0.2-1.2 0.5V18.6h-1.4v8.2l1.2 0 0.1-0.5c0.4 0.3 0.7 0.5 1 0.6 0.3 0.1 0.6 0 0.8-0.1 0.2-0.1 0.4-0.3 0.5-0.6 0.1-0.3 0.2-0.6 0.2-1v-3.2c0-0.6-0.2-1-0.6-1.3C20.5 20.5 20.3 20.5 20.1 20.5zM20.2 25.3c0 0.1-0.1 0.2-0.2 0.3 -0.1 0.1-0.3 0.1-0.4 0.1 -0.2 0-0.3 0-0.4-0.1 -0.1-0.1-0.2-0.2-0.2-0.3v-3.6c0-0.1 0.1-0.2 0.2-0.3 0.1-0.1 0.3-0.1 0.4-0.1 0.2 0 0.3 0 0.4 0.1 0.1 0.1 0.2 0.2 0.2 0.3V25.3z"/>
        <polygon points="13.2 18.6 8.6 18.6 8.6 19.6 10.1 19.6 10.1 26.8 11.5 26.8 11.5 19.6 13.2 19.6 "/>
        <path d="M17.5 0C7.8 0 0 7.8 0 17.5S7.8 35 17.5 35 35 27.2 35 17.5C35 7.8 27.2 0 17.5 0zM20 12.7V8.5h1.3v4.9c0 0.1 0 0.2 0.1 0.3 0.1 0.1 0.2 0.1 0.4 0.1 0.1 0 0.3 0 0.4-0.1 0.1-0.1 0.2-0.2 0.2-0.3V8.5h1.2v6.3h-1.6l0-0.5c-0.1 0.2-0.3 0.4-0.4 0.5 -0.2 0.1-0.3 0.2-0.5 0.2 -0.2 0-0.4-0.1-0.6-0.2 -0.1-0.1-0.3-0.2-0.4-0.4 0-0.1-0.1-0.2-0.1-0.3 0-0.1 0-0.2 0-0.3 0-0.1 0-0.2 0-0.4L20 12.7 20 12.7zM16.1 8.6c0.3-0.2 0.6-0.3 1.1-0.3 0.4 0 0.7 0.1 1 0.2 0.3 0.1 0.5 0.3 0.6 0.5 0.1 0.2 0.2 0.4 0.3 0.6 0.1 0.3 0.1 0.6 0.1 1v1.6c0 0.6 0 1-0.1 1.3 0 0.2-0.1 0.5-0.3 0.8 -0.2 0.3-0.4 0.4-0.6 0.5 -0.3 0.1-0.6 0.2-0.9 0.2 -0.3 0-0.7 0-0.9-0.2 -0.3-0.1-0.5-0.2-0.6-0.4 -0.1-0.2-0.2-0.4-0.3-0.7 -0.1-0.3-0.1-0.7-0.1-1.3 0 0 0-1.7 0-1.7 0-0.6 0.1-1 0.2-1.4C15.6 9 15.8 8.7 16.1 8.6zM11.9 6l0.9 3.1 0.9-3.1h1.7l-1.8 4.2v4.8H12.2v-4.8l-1.9-4.2H11.9zM27.8 26c0 0.4-0.1 0.8-0.3 1.2 -0.2 0.4-0.4 0.7-0.7 0.9 -0.3 0.3-0.7 0.5-1.1 0.6 -0.4 0.2-0.8 0.2-1.3 0.2H10.6c-0.5 0-0.9-0.1-1.3-0.2 -0.4-0.2-0.8-0.4-1.1-0.6 -0.3-0.3-0.6-0.6-0.7-0.9 -0.2-0.4-0.3-0.7-0.3-1.2v-6.8c0-0.4 0.1-0.8 0.3-1.2 0.2-0.4 0.4-0.7 0.7-0.9 0.3-0.3 0.7-0.5 1.1-0.6 0.4-0.2 0.8-0.2 1.3-0.2H24.4c0.5 0 0.9 0.1 1.3 0.2s0.8 0.4 1.1 0.6c0.3 0.3 0.6 0.6 0.7 0.9 0.2 0.4 0.3 0.7 0.3 1.2V26z"/>
        <path d="M17.2 13.9c0.2 0 0.3-0.1 0.4-0.2 0.1-0.1 0.2-0.3 0.2-0.4V9.9c0-0.2-0.1-0.3-0.2-0.5 -0.1-0.1-0.3-0.2-0.4-0.2 -0.2 0-0.3 0.1-0.4 0.2 -0.1 0.1-0.2 0.3-0.2 0.5v3.4c0 0.2 0.1 0.3 0.2 0.4C16.9 13.9 17.1 13.9 17.2 13.9z"/>
        <path d="M24.7 24.7v0.2 0.5c0 0.2-0.1 0.3-0.2 0.4 -0.1 0.1-0.3 0.1-0.4 0.1h-0.2c-0.2 0-0.3 0-0.4-0.1 -0.1-0.1-0.2-0.2-0.2-0.4v-0.1 -0.6 -0.8h2.5v-0.8c0-0.3 0-0.6 0-0.9 0-0.3 0-0.5-0.1-0.7 0-0.3-0.2-0.5-0.4-0.7 -0.2-0.2-0.5-0.3-0.7-0.3 -0.3-0.1-0.6-0.1-0.9 0 -0.3 0-0.5 0.1-0.8 0.3 -0.3 0.2-0.5 0.4-0.6 0.8 -0.1 0.3-0.2 0.8-0.2 1.3v1.9c0 0.8 0.2 1.4 0.6 1.7 0.4 0.3 0.8 0.5 1.2 0.5 0 0 0.1 0 0.1 0 0.5 0 0.9-0.2 1.3-0.6 0.3-0.3 0.4-0.6 0.4-1.1 0-0.1 0-0.3-0.1-0.5H24.7v0h0V24.7zM23.3 22.1c0-0.2 0.1-0.3 0.2-0.4 0.1-0.1 0.3-0.2 0.4-0.2h0.1c0.2 0 0.3 0.1 0.5 0.2 0.1 0.1 0.2 0.2 0.2 0.4l0 0.8h-1.4L23.3 22.1z"/>
    </symbol>
    <symbol viewBox="0 0 35 35" id="ico-instagram">
        <path fill-rule="evenodd" clip-rule="evenodd" d="M17.5 35C27.165 35 35 27.165 35 17.5C35 7.83502 27.165 0 17.5 0C7.83502 0 0 7.83502 0 17.5C0 27.165 7.83502 35 17.5 35ZM27.9509 21.8178C28 21.0327 28 19.6098 28 17.5C28 16.1896 27.9811 15.1441 27.9667 14.3519C27.958 13.8687 27.9509 13.4797 27.9509 13.1822C27.8528 11.2687 27.264 9.84579 26.2336 8.76636C25.2033 7.68692 23.7313 7.1472 21.8178 7.04907C21.0327 7 19.6098 7 17.5 7C15.4393 7 13.9673 7 13.1822 7.04907C11.2687 7.1472 9.79673 7.73598 8.76635 8.76636C7.68692 9.79673 7.1472 11.2687 7.04907 13.1822C7 13.9673 7 15.4393 7 17.5C7 19.5607 7 21.0327 7.04907 21.8178C7.1472 23.7313 7.73598 25.2033 8.76635 26.2336C9.79673 27.3131 11.2687 27.8528 13.1822 27.9509C13.9673 28 15.3902 28 17.5 28C19.5607 28 21.0327 28 21.8178 27.9509C23.7313 27.8528 25.1542 27.264 26.2336 26.2336C27.3131 25.2033 27.8528 23.7313 27.9509 21.8178ZM17.5 8.86449H18.5304H19.9533C20.1057 8.86449 20.2774 8.87415 20.4685 8.8849C20.708 8.89837 20.9778 8.91355 21.278 8.91355C21.8668 8.96262 22.3084 9.01168 22.7009 9.06075C23.0935 9.10981 23.4369 9.20794 23.6822 9.30608C24.1729 9.50234 24.5654 9.74766 24.9089 10.0911C25.2523 10.4836 25.4977 10.8762 25.6939 11.3178C25.7921 11.5631 25.8902 11.9065 25.9393 12.2991C26.0374 12.6916 26.0864 13.1822 26.0864 13.722C26.1355 14.2617 26.1355 14.7032 26.1355 15.0467V15.0467V16.4696V17.5V18.5304V19.9533C26.1355 20.1057 26.1259 20.2774 26.1151 20.4685C26.1016 20.708 26.0864 20.9778 26.0864 21.278C26.0374 21.8668 25.9883 22.3084 25.9393 22.7009C25.8902 23.0935 25.7921 23.4369 25.6939 23.6822C25.4977 24.1729 25.2523 24.5654 24.9089 24.9089C24.5164 25.2523 24.1238 25.4977 23.6822 25.6939C23.4369 25.7921 23.0935 25.8902 22.7009 25.9393C22.3084 26.0374 21.8178 26.0864 21.278 26.0864C20.7383 26.1355 20.2967 26.1355 19.9533 26.1355H18.5304H17.5H16.4696H15.0467C14.7033 26.1355 14.3107 26.1355 13.722 26.0864C13.1332 26.0374 12.6916 25.9883 12.2991 25.9393C11.9065 25.8902 11.5631 25.7921 11.3178 25.6939C10.8271 25.4977 10.4346 25.2523 10.0911 24.9089C9.74766 24.5164 9.50234 24.1238 9.30607 23.6822C9.24271 23.5238 9.1998 23.3245 9.15093 23.0974C9.12412 22.9729 9.09551 22.84 9.06075 22.7009C8.96262 22.3084 8.91355 21.8178 8.91355 21.278C8.86449 20.7383 8.86449 20.2967 8.86449 19.9533V18.5304V17.5V16.4696V15.0467C8.86449 14.8943 8.87415 14.7226 8.8849 14.5315C8.89837 14.292 8.91355 14.0222 8.91355 13.722C8.96262 13.1332 9.01168 12.6916 9.06075 12.2991C9.10981 11.9065 9.20794 11.5631 9.30607 11.3178C9.50234 10.8271 9.74766 10.4346 10.0911 10.0911C10.4836 9.74766 10.8762 9.50234 11.3178 9.30608C11.5631 9.20794 11.9065 9.10981 12.2991 9.06075C12.6916 8.96262 13.1822 8.91355 13.722 8.91355C14.2617 8.86449 14.7033 8.86449 15.0467 8.86449H16.4696H17.5ZM22.8481 17.5C22.8481 15.979 22.3084 14.7033 21.278 13.6729C20.2477 12.5935 18.972 12.1028 17.4509 12.1028C15.9299 12.1028 14.6542 12.6425 13.6238 13.6729C12.5935 14.7523 12.0537 15.979 12.0537 17.5C12.0537 19.021 12.5935 20.2967 13.6238 21.3271C14.7033 22.3575 15.9299 22.8972 17.4509 22.8972C18.972 22.8972 20.2477 22.3575 21.278 21.3271C22.3084 20.2477 22.8481 19.021 22.8481 17.5ZM20.9836 17.5C20.9836 18.4322 20.6402 19.2664 19.9533 19.9533C19.2664 20.6402 18.4322 20.9836 17.4509 20.9836C16.4696 20.9836 15.6355 20.6402 14.9486 19.9533C14.2617 19.3154 13.9182 18.4813 13.9182 17.5C13.9182 16.5187 14.2617 15.6846 14.9486 14.9977C15.6355 14.3107 16.4696 13.9673 17.4509 13.9673C18.4322 13.9673 19.2664 14.3107 19.9533 14.9977C20.6402 15.6846 20.9836 16.5678 20.9836 17.5ZM24.3692 11.8575C24.3692 11.514 24.222 11.2196 23.9766 10.9743C23.7313 10.729 23.4369 10.5818 23.0935 10.5818C22.75 10.5818 22.4556 10.729 22.2103 10.9743C21.965 11.2196 21.8178 11.514 21.8178 11.8575C21.8178 12.2009 21.965 12.4953 22.2103 12.7407C22.4556 12.986 22.75 13.1332 23.0935 13.1332C23.4369 13.1332 23.7313 12.986 23.9766 12.7407C24.222 12.4953 24.3692 12.2009 24.3692 11.8575Z"/>
    </symbol>
    <symbol viewBox="0 0 35 35" id="ico-telegram">
        <path fill-rule="evenodd" clip-rule="evenodd" d="M35 17.5C35 27.165 27.165 35 17.5 35C7.83502 35 0 27.165 0 17.5C0 7.83502 7.83502 0 17.5 0C27.165 0 35 7.83502 35 17.5ZM11.1631 18.9091L6.4205 17.3926C6.4205 17.3926 5.8537 17.1669 6.03621 16.6552C6.07378 16.5497 6.14957 16.4599 6.37629 16.3056C7.42712 15.5867 25.8264 9.09675 25.8264 9.09675C25.8264 9.09675 26.3459 8.92495 26.6523 9.03922C26.7281 9.06224 26.7963 9.10462 26.85 9.162C26.9036 9.21938 26.9407 9.28971 26.9576 9.36581C26.9907 9.5002 27.0045 9.63848 26.9987 9.77663C26.9978 9.84987 26.9919 9.91982 26.9849 10.003C26.9805 10.0555 26.9757 10.1134 26.9713 10.1806C26.8593 11.955 23.5058 25.1979 23.5058 25.1979C23.5058 25.1979 23.3051 25.9728 22.5863 25.9993C22.4096 26.0049 22.2336 25.9756 22.0688 25.913C21.9039 25.8504 21.7536 25.7559 21.6268 25.6351C20.8921 25.0149 19.2177 23.8456 17.6295 22.7674C17.1319 23.2487 16.1988 24.1789 15.2376 25.2808C13.8261 26.8989 14.0076 25.2808 14.0076 25.2808L14.3914 20.6057L14.263 20.5214C14.2387 20.5051 14.2182 20.4839 14.203 20.4593C14.1877 20.4346 14.178 20.407 14.1746 20.3783C14.1595 20.3038 14.2421 20.2115 14.2421 20.2115C14.2421 20.2115 14.3115 20.151 14.4378 20.0403L14.4411 20L14.4652 20.0163C15.807 18.8409 22.7539 12.7304 22.9579 12.0281C22.9754 11.9679 22.9094 11.9382 22.8206 11.9645C22.2573 12.1679 12.5004 18.2145 11.4059 18.8928L11.4028 18.8948C11.3251 18.9178 11.243 18.9227 11.1631 18.9091Z"/>
    </symbol>
    <symbol viewBox="0 0 35 35" id="ico-envelope">
        <path fill-rule="evenodd" clip-rule="evenodd" d="M17.5 35C27.165 35 35 27.165 35 17.5C35 7.83502 27.165 0 17.5 0C7.83502 0 0 7.83502 0 17.5C0 27.165 7.83502 35 17.5 35ZM16.75 20.08C17.375 20.3825 17.6675 20.5 18 20.5C18.3325 20.5 18.625 20.3825 19.25 20.08L28 15.5V24.25C28 24.9375 27.4375 25.5 26.75 25.5H9.25C8.5625 25.5 8 24.9375 8 24.25V15.5L16.75 20.08ZM9.25 10.5H26.75C27.4375 10.5 28 11.0625 28 11.75V12.6975L18 17.9538L8 12.6975V11.75C8 11.0625 8.5625 10.5 9.25 10.5Z"/>
    </symbol>
    <symbol viewBox="0 0 35.1 35.1" id="ico-google-plus">
        <path d="M17.5,0C7.9,0,0,7.9,0,17.5s7.9,17.5,17.5,17.5s17.5-7.9,17.5-17.5S27.2,0,17.5,0z M21,17.5
            c0,4.8-3.9,8.7-8.7,8.7c-4.8,0-8.7-3.9-8.7-8.7c0-4.8,3.9-8.7,8.7-8.7c2.1,0,4.1,0.8,5.7,2.1l-2.3,2.6c-0.9-0.8-2.1-1.3-3.4-1.3
            c-2.9,0-5.2,2.4-5.2,5.2s2.4,5.2,5.2,5.2c2.3,0,4.2-1.5,4.9-3.5h-4.9v-3.5H21V17.5z M28,17.5V21h-1.7v-3.5h-3.5v-1.7h3.5v-3.5H28
            v3.5h3.5v1.7H28z"/>
    </symbol>
    <symbol viewBox="0 0 100 100" id="logoRaccoon">
        <path d="M68.6 10.2v12.6L57.3 20.3h0L50 20.3v0l-7.2 0h0l-11.3 2.5V10.2L12.8 28.9 0.9 40.7l0 0 9.2 9.2 13.5 13.5 9.3 9.3L50 89.8v0l17.1-17.1 9.3-9.3 13.4-13.5 9.2-9.2 -11.8-11.9L68.6 10.2zM64.3 71.8l0 0L50 66.7v0l-14.3 5.2 0 0 -9.7-9.8 9.6-5.9L50 53v0l14.4 3.1 9.6 5.9L64.3 71.8zM95.3 40.7l-7.5 7.6h0l-9.5-7.5 -9.6-3.9 -7.9 3.9L50 46V45.9l-10.7-5.2 -7.9-3.9 -9.6 3.9 -9.5 7.5 0 0 -7.5-7.6 0 0 12.6-12.6 11.6-11.6 0 9.9 0.1 0 14.7-3.6 0 0H50v0h6.4l14.7 3.6 0.1 0 0-9.9L82.7 28.1l12.6 12.6V40.7z"/>
    </symbol>
</svg>
